<svg width="110" height="86" viewBox="0 0 110 86" fill="none" xmlns="http://www.w3.org/2000/svg">
<path d="M109.611 52.6728C109.611 52.9926 109.362 53.2858 108.971 53.4812L45.0623 85.4234C44.6891 85.6188 44.227 85.7166 43.7383 85.7166V26.6288L64.5317 16.236C64.8961 16.0673 65.367 15.9695 65.8558 15.9695C66.3445 15.9695 66.8155 16.0673 67.1798 16.236L109.593 30.5639C109.593 30.5639 109.602 52.353 109.602 52.6728H109.611Z" fill="#9F9D8C"/>
<path d="M43.7375 26.6392L0 41.6243C0 41.6243 0 63.4136 0 63.7334C0 64.0532 0.222119 64.3374 0.630881 64.5506L42.4135 85.4427C42.7689 85.6204 43.2399 85.7181 43.7375 85.7181V26.6392Z" fill="#D3CDB9"/>
<path d="M45.0699 63.334V85.4342C44.7234 85.603 44.2346 85.7274 43.7459 85.7274C43.2572 85.7274 42.7862 85.6119 42.4219 85.4431V63.334H45.0788H45.0699Z" fill="url(#paint0_linear_4047_27053)"/>
<path d="M0.639776 41.6237V64.5499C0.222127 64.3278 0 64.0525 0 63.7328V41.6237H0.639776Z" fill="url(#paint1_linear_4047_27053)"/>
<path d="M43.7375 63.5992C43.2399 63.5992 42.7689 63.5016 42.4135 63.3239L0.630881 42.4318C0.222119 42.2275 0 41.9343 0 41.6145C0 41.2947 0.222119 41.0105 0.630881 40.8062L64.531 8.85508C64.8864 8.67743 65.3574 8.57977 65.855 8.57977C66.3526 8.57977 66.8236 8.67744 67.179 8.86397L108.962 29.7472C109.37 29.9515 109.593 30.2358 109.593 30.5556C109.593 30.8754 109.37 31.1595 108.962 31.3638L45.0615 63.315C44.7061 63.4927 44.2351 63.5903 43.7375 63.5903V63.5992Z" fill="url(#paint2_linear_4047_27053)"/>
<path d="M43.7391 50.177L34.5508 59.3617L34.613 59.415L42.424 63.3146C42.7794 63.4922 43.2504 63.5899 43.748 63.5899C44.2456 63.5899 44.7166 63.4922 45.072 63.3146L52.883 59.415L52.9361 59.3617L43.748 50.177H43.7391Z" fill="url(#paint3_linear_4047_27053)"/>
<path d="M108.873 30.9646L44.9733 62.9156C44.2979 63.2532 43.196 63.2532 42.5118 62.9156L0.729166 42.0235C0.0538197 41.686 0.0538197 41.1352 0.729166 40.7977L64.6295 8.8466C65.3048 8.50906 66.4067 8.50906 67.091 8.8466L108.873 29.7388C109.549 30.0763 109.549 30.627 108.873 30.9646Z" fill="#DBD8C3"/>
<path d="M76.1418 19.6919C76.1418 19.9406 75.9462 20.1804 75.5996 20.3581L67.1934 24.5862C66.8291 24.755 66.3315 24.8528 65.8694 24.8528C65.3806 24.8528 64.883 24.755 64.5453 24.5862L56.1391 20.3581C55.4016 19.9939 55.4016 19.3987 56.1391 19.0346L64.5453 14.833C65.2562 14.4689 66.4647 14.4689 67.2023 14.833L72.0185 17.2403L75.6085 19.0346C75.9551 19.2033 76.1507 19.452 76.1507 19.7008L76.1418 19.6919Z" fill="url(#paint4_linear_4047_27053)"/>
<path d="M76.1435 16.3971V19.5416C76.1435 19.7903 75.9479 20.0302 75.6014 20.2078L67.1951 24.436C66.8308 24.6048 66.3332 24.7024 65.8711 24.7024V16.3971H76.1435Z" fill="#9F9D8C"/>
<path d="M55.5781 16.3971V19.5416C55.5781 19.7903 55.7737 20.0302 56.1203 20.2078L64.5265 24.436C64.8909 24.6048 65.3885 24.7024 65.8505 24.7024V16.3971H55.5781Z" fill="#D3CDB9"/>
<path d="M67.191 21.3092V24.4271C66.8267 24.5958 66.3291 24.6935 65.867 24.6935C65.3783 24.6935 64.8806 24.5958 64.543 24.4271V21.3092H67.1999H67.191Z" fill="url(#paint5_linear_4047_27053)"/>
<path d="M64.527 21.3089L56.1207 17.1074C55.3921 16.7432 55.3921 16.1481 56.1207 15.7839L64.527 11.5824C65.2556 11.2182 66.4464 11.2182 67.175 11.5824L75.5813 15.7839C76.3099 16.1481 76.3099 16.7432 75.5813 17.1074L67.175 21.3089C66.4464 21.6731 65.2556 21.6731 64.527 21.3089Z" fill="url(#paint6_linear_4047_27053)"/>
<path d="M64.527 21.2114L56.1207 17.0098C55.3921 16.6457 55.3921 16.0505 56.1207 15.6863L64.527 11.4847C65.2556 11.1205 66.4464 11.1205 67.175 11.4847L75.5813 15.6863C76.3099 16.0505 76.3099 16.6457 75.5813 17.0098L67.175 21.2114C66.4464 21.5755 65.2556 21.5755 64.527 21.2114Z" fill="url(#paint7_linear_4047_27053)"/>
<path d="M71.5554 15.2853L71.3866 15.3298C70.578 13.8996 66.7036 12.6827 64.2688 13.9529C63.7979 14.1927 63.5046 14.4415 63.3446 14.6813L63.1937 14.5659V15.1344L63.2114 15.152C63.247 15.6584 63.8068 16.1648 64.722 16.6888C65.4951 17.1241 66.0728 17.506 65.5041 17.7903C64.5444 18.27 61.9674 16.9996 63.0071 16.4844V15.996L62.6339 15.9337L62.4471 16.2091C61.9584 15.9693 61.4964 15.7294 60.9899 15.4807C60.5367 15.7028 60.2524 15.9426 60.0924 16.2002L59.9414 16.1469V16.6888L59.9592 16.7065C60.0036 18.3853 64.8021 20.1708 67.5213 18.8117C68.2233 18.4564 68.4987 18.1278 68.5342 17.7992L68.552 17.7814V17.7103V17.2129H68.321C68.0011 16.8043 67.3879 16.3957 66.7392 15.996C66.0816 15.5874 65.6106 15.2231 66.2682 14.93C67.068 14.5835 68.5876 15.1254 68.7653 15.6406L68.5164 15.5785V16.067C69.2273 16.4223 69.7694 16.6888 70.498 17.0618C71.2178 16.7065 71.5201 16.298 71.5379 15.8805L71.5554 15.8538V15.2675V15.2853Z" fill="url(#paint8_linear_4047_27053)"/>
<path d="M65.5076 17.3036C66.0763 17.0193 65.4986 16.6285 64.7255 16.2021C63.0816 15.2517 62.5218 14.3635 64.2723 13.4663C67.729 11.672 74.0738 14.843 70.5015 16.584C69.764 16.2198 69.2308 15.9445 68.5199 15.5892C69.604 15.0473 67.3203 13.9992 66.2806 14.4434C65.6142 14.7276 66.094 15.1007 66.7516 15.5093C68.2 16.4064 69.5775 17.3036 67.5337 18.3251C64.1037 20.0395 57.359 16.7618 61.0023 14.9852C61.7043 15.3316 62.3086 15.6425 63.0195 15.9979C61.9798 16.5131 64.5568 17.7833 65.5165 17.3036H65.5076Z" fill="url(#paint9_linear_4047_27053)"/>
<path d="M65.5076 17.2061C66.0763 16.9218 65.4986 16.531 64.7255 16.1046C63.0816 15.1542 62.5218 14.2658 64.2723 13.3687C67.729 11.5744 74.0738 14.7455 70.5015 16.4865C69.764 16.1223 69.2308 15.847 68.5199 15.4917C69.604 14.9498 67.3203 13.9017 66.2806 14.3459C65.6142 14.6301 66.094 15.0031 66.7516 15.4117C68.2 16.3089 69.5775 17.2061 67.5337 18.2276C64.1037 19.942 57.359 16.6642 61.0023 14.8877C61.7043 15.2341 62.3086 15.545 63.0195 15.9003C61.9798 16.4155 64.5568 17.6857 65.5165 17.2061H65.5076Z" fill="url(#paint10_linear_4047_27053)"/>
<path d="M98.2629 30.7501C98.2629 30.9988 98.0675 31.2386 97.721 31.4163L89.3147 35.6445C88.9504 35.8132 88.4525 35.9109 87.9905 35.9109C87.5017 35.9109 87.0041 35.8132 86.6664 35.6445L78.2602 31.4163C77.5226 31.0521 77.5226 30.457 78.2602 30.0928L86.6664 25.8913C87.3773 25.5271 88.5858 25.5271 89.3234 25.8913L94.1398 28.2985L97.7298 30.0928C98.0764 30.2616 98.2718 30.5103 98.2718 30.759L98.2629 30.7501Z" fill="url(#paint11_linear_4047_27053)"/>
<path d="M98.2607 27.4553V30.5997C98.2607 30.8484 98.0653 31.0883 97.7188 31.2659L89.3125 35.4941C88.9482 35.6629 88.4504 35.7606 87.9883 35.7606V27.4553H98.2607Z" fill="#9F9D8C"/>
<path d="M77.6992 27.4554V30.5998C77.6992 30.8486 77.8946 31.0884 78.2412 31.2661L86.6476 35.4942C87.0119 35.663 87.5096 35.7608 87.9716 35.7608V27.4554H77.6992Z" fill="#D3CDB9"/>
<path d="M89.3123 32.3675V35.4853C88.948 35.6541 88.4502 35.7518 87.9881 35.7518C87.4994 35.7518 87.0017 35.6541 86.6641 35.4853V32.3675H89.321H89.3123Z" fill="url(#paint12_linear_4047_27053)"/>
<path d="M86.6559 32.3671L78.2496 28.1656C77.521 27.8014 77.521 27.2063 78.2496 26.8421L86.6559 22.6406C87.3845 22.2764 88.5755 22.2764 89.3041 22.6406L97.7104 26.8421C98.439 27.2063 98.439 27.8014 97.7104 28.1656L89.3041 32.3671C88.5755 32.7313 87.3845 32.7313 86.6559 32.3671Z" fill="url(#paint13_linear_4047_27053)"/>
<path d="M86.6559 32.2695L78.2496 28.068C77.521 27.7038 77.521 27.1086 78.2496 26.7445L86.6559 22.5429C87.3845 22.1788 88.5755 22.1788 89.3041 22.5429L97.7104 26.7445C98.439 27.1086 98.439 27.7038 97.7104 28.068L89.3041 32.2695C88.5755 32.6337 87.3845 32.6337 86.6559 32.2695Z" fill="url(#paint14_linear_4047_27053)"/>
<path d="M93.6767 26.3436L93.508 26.3879C92.6993 24.9578 88.825 23.7409 86.3902 25.0111C85.9192 25.251 85.6259 25.4996 85.466 25.7395L85.315 25.624V26.1925L85.3325 26.2103C85.3681 26.7166 85.9281 27.2229 86.8434 27.747C87.6164 28.1822 88.1939 28.5642 87.6252 28.8484C86.6655 29.3281 84.0885 28.0579 85.1282 27.5427V27.0541L84.755 26.992L84.5685 27.2673C84.0797 27.0274 83.6175 26.7877 83.111 26.5389C82.6578 26.761 82.3734 27.0008 82.2135 27.2584L82.0625 27.2051V27.747L82.0803 27.7648C82.1247 29.4436 86.9232 31.229 89.6424 29.87C90.3444 29.5147 90.6198 29.186 90.6553 28.8573L90.6731 28.8395V28.7685V28.271H90.4421C90.1222 27.8624 89.5092 27.4538 88.8605 27.0541C88.2029 26.6455 87.732 26.2813 88.3895 25.9882C89.1893 25.6418 90.7086 26.1836 90.8864 26.6988L90.6377 26.6366V27.1252C91.3486 27.4805 91.8907 27.747 92.6193 28.1201C93.3391 27.7648 93.6412 27.3561 93.6589 26.9386L93.6767 26.9119V26.3258V26.3436Z" fill="url(#paint15_linear_4047_27053)"/>
<path d="M87.6259 28.3618C88.1946 28.0776 87.6171 27.6867 86.844 27.2604C85.2001 26.3099 84.6403 25.4217 86.3908 24.5245C89.8475 22.7302 96.1922 25.9014 92.62 27.6424C91.8825 27.2782 91.3493 27.0028 90.6384 26.6475C91.7225 26.1057 89.4388 25.0575 88.3991 25.5016C87.7326 25.7858 88.2125 26.159 88.8612 26.5676C90.3096 27.4647 91.6869 28.3618 89.6431 29.3833C86.213 31.0977 79.4684 27.82 83.1117 26.0434C83.8137 26.3899 84.418 26.7008 85.1289 27.0561C84.0892 27.5713 86.6662 28.8415 87.6259 28.3618Z" fill="url(#paint16_linear_4047_27053)"/>
<path d="M87.6259 28.2642C88.1946 27.9799 87.6171 27.5891 86.844 27.1627C85.2001 26.2123 84.6403 25.3241 86.3908 24.4269C89.8475 22.6326 96.1922 25.8037 92.62 27.5447C91.8825 27.1805 91.3493 26.9052 90.6384 26.5499C91.7225 26.008 89.4388 24.9598 88.3991 25.404C87.7326 25.6882 88.2125 26.0613 88.8612 26.4699C90.3096 27.367 91.6869 28.2642 89.6431 29.2857C86.213 31.0001 79.4684 27.7223 83.1117 25.9458C83.8137 26.2922 84.418 26.6031 85.1289 26.9584C84.0892 27.4736 86.6662 28.7438 87.6259 28.2642Z" fill="url(#paint17_linear_4047_27053)"/>
<path d="M54.0246 30.7501C54.0246 30.9988 53.8292 31.2386 53.4827 31.4163L45.0764 35.6445C44.7121 35.8132 44.2145 35.9109 43.7524 35.9109C43.2637 35.9109 42.766 35.8132 42.4284 35.6445L34.0219 31.4163C33.2844 31.0521 33.2844 30.457 34.0219 30.0928L42.4284 25.8913C43.1393 25.5271 44.3478 25.5271 45.0853 25.8913L49.9015 28.2985L53.4916 30.0928C53.8381 30.2616 54.0335 30.5103 54.0335 30.759L54.0246 30.7501Z" fill="url(#paint18_linear_4047_27053)"/>
<path d="M54.0222 27.4554V30.5998C54.0222 30.8486 53.8268 31.0884 53.4803 31.2661L45.074 35.4942C44.7097 35.663 44.2121 35.7608 43.75 35.7608V27.4554H54.0222Z" fill="#9F9D8C"/>
<path d="M33.4688 27.4553V30.5997C33.4688 30.8484 33.6641 31.0883 34.0107 31.2659L42.4171 35.4941C42.7815 35.6629 43.2791 35.7606 43.7412 35.7606V27.4553H33.4688Z" fill="#D3CDB9"/>
<path d="M45.0738 32.3675V35.4853C44.7095 35.6541 44.2119 35.7518 43.7498 35.7518C43.2611 35.7518 42.7635 35.6541 42.4258 35.4853V32.3675H45.0827H45.0738Z" fill="url(#paint19_linear_4047_27053)"/>
<path d="M42.4178 32.3671L34.0113 28.1656C33.2827 27.8014 33.2827 27.2063 34.0113 26.8421L42.4178 22.6406C43.1465 22.2764 44.3372 22.2764 45.0659 22.6406L53.4721 26.8421C54.2008 27.2063 54.2008 27.8014 53.4721 28.1656L45.0659 32.3671C44.3372 32.7313 43.1465 32.7313 42.4178 32.3671Z" fill="url(#paint20_linear_4047_27053)"/>
<path d="M42.4178 32.2695L34.0113 28.068C33.2827 27.7038 33.2827 27.1086 34.0113 26.7445L42.4178 22.5429C43.1465 22.1788 44.3372 22.1788 45.0659 22.5429L53.4721 26.7445C54.2008 27.1086 54.2008 27.7038 53.4721 28.068L45.0659 32.2695C44.3372 32.6337 43.1465 32.6337 42.4178 32.2695Z" fill="url(#paint21_linear_4047_27053)"/>
<path d="M49.4385 26.3436L49.2697 26.3879C48.461 24.9578 44.5867 23.7409 42.1519 25.0111C41.6809 25.251 41.3876 25.4996 41.2277 25.7395L41.0767 25.624V26.1925L41.0945 26.2103C41.13 26.7166 41.6898 27.2229 42.6051 27.747C43.3782 28.1822 43.9557 28.5642 43.3869 28.8484C42.4272 29.3281 39.8504 28.0579 40.8901 27.5427V27.0541L40.5167 26.992L40.3302 27.2673C39.8414 27.0274 39.3794 26.7877 38.8729 26.5389C38.4197 26.761 38.1354 27.0008 37.9754 27.2584L37.8242 27.2051V27.747L37.842 27.7648C37.8864 29.4436 42.685 31.229 45.4041 29.87C46.1061 29.5147 46.3817 29.186 46.4173 28.8573L46.435 28.8395V28.7685V28.271H46.204C45.8841 27.8624 45.2709 27.4538 44.6222 27.0541C43.9647 26.6455 43.4937 26.2813 44.1512 25.9882C44.951 25.6418 46.4706 26.1836 46.6483 26.6988L46.3995 26.6366V27.1252C47.1104 27.4805 47.6524 27.747 48.3811 28.1201C49.1008 27.7648 49.4029 27.3561 49.4207 26.9386L49.4385 26.9119V26.3258V26.3436Z" fill="url(#paint22_linear_4047_27053)"/>
<path d="M43.3863 28.3618C43.9551 28.0776 43.3776 27.6867 42.6045 27.2604C40.9605 26.3099 40.4007 25.4217 42.1513 24.5245C45.608 22.7302 51.9527 25.9014 48.3805 27.6424C47.6429 27.2782 47.1098 27.0028 46.3989 26.6475C47.483 26.1057 45.1992 25.0575 44.1595 25.5016C43.4931 25.7858 43.973 26.159 44.6305 26.5676C46.079 27.4647 47.4562 28.3618 45.4124 29.3833C41.9824 31.0977 35.2379 27.82 38.8812 26.0434C39.5832 26.3899 40.1873 26.7008 40.8982 27.0561C39.8585 27.5713 42.4355 28.8415 43.3952 28.3618H43.3863Z" fill="url(#paint23_linear_4047_27053)"/>
<path d="M43.3863 28.2642C43.9551 27.9799 43.3776 27.5891 42.6045 27.1627C40.9605 26.2123 40.4007 25.3241 42.1513 24.4269C45.608 22.6326 51.9527 25.8037 48.3805 27.5447C47.6429 27.1805 47.1098 26.9052 46.3989 26.5499C47.483 26.008 45.1992 24.9598 44.1595 25.404C43.4931 25.6882 43.973 26.0613 44.6305 26.4699C46.079 27.367 47.4562 28.2642 45.4124 29.2857C41.9824 31.0001 35.2379 27.7223 38.8812 25.9458C39.5832 26.2922 40.1873 26.6031 40.8982 26.9584C39.8585 27.4736 42.4355 28.7438 43.3952 28.2642H43.3863Z" fill="url(#paint24_linear_4047_27053)"/>
<path d="M76.1418 41.8103C76.1418 42.059 75.9462 42.2988 75.5996 42.4765L67.1934 46.7047C66.8291 46.8734 66.3315 46.9712 65.8694 46.9712C65.3806 46.9712 64.883 46.8734 64.5453 46.7047L56.1391 42.4765C55.4016 42.1123 55.4016 41.5172 56.1391 41.153L64.5453 36.9515C65.2562 36.5873 66.4647 36.5873 67.2023 36.9515L72.0185 39.3586L75.6085 41.153C75.9551 41.3217 76.1507 41.5704 76.1507 41.8192L76.1418 41.8103Z" fill="url(#paint25_linear_4047_27053)"/>
<path d="M76.1435 38.5155V41.66C76.1435 41.9087 75.9479 42.1486 75.6014 42.3262L67.1951 46.5544C66.8308 46.7232 66.3332 46.8208 65.8711 46.8208V38.5155H76.1435Z" fill="#9F9D8C"/>
<path d="M55.5781 38.5155V41.66C55.5781 41.9087 55.7737 42.1486 56.1203 42.3262L64.5265 46.5544C64.8909 46.7232 65.3885 46.8208 65.8505 46.8208V38.5155H55.5781Z" fill="#D3CDB9"/>
<path d="M67.191 43.4276V46.5455C66.8267 46.7143 66.3291 46.8119 65.867 46.8119C65.3783 46.8119 64.8806 46.7143 64.543 46.5455V43.4276H67.1999H67.191Z" fill="url(#paint26_linear_4047_27053)"/>
<path d="M64.527 43.4274L56.1207 39.2259C55.3921 38.8617 55.3921 38.2665 56.1207 37.9023L64.527 33.7008C65.2556 33.3366 66.4464 33.3366 67.175 33.7008L75.5813 37.9023C76.3099 38.2665 76.3099 38.8617 75.5813 39.2259L67.175 43.4274C66.4464 43.7916 65.2556 43.7916 64.527 43.4274Z" fill="url(#paint27_linear_4047_27053)"/>
<path d="M64.527 43.3298L56.1207 39.1281C55.3921 38.764 55.3921 38.1688 56.1207 37.8046L64.527 33.6031C65.2556 33.2389 66.4464 33.2389 67.175 33.6031L75.5813 37.8046C76.3099 38.1688 76.3099 38.764 75.5813 39.1281L67.175 43.3298C66.4464 43.694 65.2556 43.694 64.527 43.3298Z" fill="url(#paint28_linear_4047_27053)"/>
<path d="M71.5554 37.4057L71.3866 37.4501C70.578 36.02 66.7036 34.803 64.2688 36.0733C63.7979 36.3131 63.5046 36.5618 63.3446 36.8016L63.1937 36.6861V37.2546L63.2114 37.2724C63.247 37.7787 63.8068 38.285 64.722 38.8091C65.4951 39.2443 66.0728 39.6263 65.5041 39.9105C64.5444 40.3902 61.9674 39.12 63.0071 38.6048V38.1163L62.6339 38.0541L62.4471 38.3295C61.9584 38.0897 61.4964 37.8498 60.9899 37.6011C60.5367 37.8231 60.2524 38.063 60.0924 38.3206L59.9414 38.2673V38.8091L59.9592 38.8269C60.0036 40.5057 64.8021 42.2911 67.5213 40.9321C68.2233 40.5768 68.4987 40.2481 68.5342 39.9194L68.552 39.9016V39.8306V39.3332H68.321C68.0011 38.9158 67.3879 38.516 66.7392 38.1163C66.0816 37.7077 65.6106 37.3435 66.2682 37.0503C67.068 36.7039 68.5876 37.2458 68.7653 37.761L68.5164 37.6988V38.1873C69.2273 38.5427 69.7694 38.8091 70.498 39.1822C71.2178 38.8269 71.5201 38.4183 71.5379 38.0008L71.5554 37.9742V37.3879V37.4057Z" fill="url(#paint29_linear_4047_27053)"/>
<path d="M65.5076 39.4221C66.0763 39.1378 65.4986 38.747 64.7255 38.3206C63.0816 37.3702 62.5218 36.4819 64.2723 35.5847C67.729 33.7904 74.0738 36.9615 70.5015 38.7025C69.764 38.3384 69.2308 38.063 68.5199 37.7077C69.604 37.1658 67.3203 36.1178 66.2806 36.5619C65.6142 36.8461 66.094 37.2192 66.7516 37.6278C68.2 38.5249 69.5775 39.4221 67.5337 40.4436C64.1037 42.158 57.359 38.8803 61.0023 37.1037C61.7043 37.4501 62.3086 37.7611 63.0195 38.1164C61.9798 38.6316 64.5568 39.9018 65.5165 39.4221H65.5076Z" fill="url(#paint30_linear_4047_27053)"/>
<path d="M65.5076 39.3245C66.0763 39.0403 65.4986 38.6494 64.7255 38.2231C63.0816 37.2726 62.5218 36.3843 64.2723 35.4871C67.729 33.6928 74.0738 36.8639 70.5015 38.6049C69.764 38.2408 69.2308 37.9654 68.5199 37.6101C69.604 37.0682 67.3203 36.02 66.2806 36.4642C65.6142 36.7484 66.094 37.1216 66.7516 37.5302C68.2 38.4273 69.5775 39.3244 67.5337 40.3459C64.1037 42.0603 57.359 38.7827 61.0023 37.0061C61.7043 37.3526 62.3086 37.6634 63.0195 38.0187C61.9798 38.5339 64.5568 39.8042 65.5165 39.3245H65.5076Z" fill="url(#paint31_linear_4047_27053)"/>
<path d="M31.9035 41.8103C31.9035 42.059 31.7079 42.2988 31.3614 42.4765L22.9551 46.7047C22.5908 46.8734 22.0932 46.9712 21.6311 46.9712C21.1424 46.9712 20.6447 46.8734 20.3071 46.7047L11.9008 42.4765C11.1633 42.1123 11.1633 41.5172 11.9008 41.153L20.3071 36.9515C21.018 36.5873 22.2265 36.5873 22.964 36.9515L27.7804 39.3586L31.3703 41.153C31.7168 41.3217 31.9124 41.5704 31.9124 41.8192L31.9035 41.8103Z" fill="url(#paint32_linear_4047_27053)"/>
<path d="M31.9013 38.5155V41.66C31.9013 41.9087 31.7057 42.1486 31.3592 42.3262L22.9529 46.5544C22.5886 46.7232 22.091 46.8208 21.6289 46.8208V38.5155H31.9013Z" fill="#9F9D8C"/>
<path d="M11.3398 38.5156V41.6601C11.3398 41.9089 11.5352 42.1487 11.8818 42.3263L20.288 46.5545C20.6524 46.7233 21.15 46.8209 21.612 46.8209V38.5156H11.3398Z" fill="#D3CDB9"/>
<path d="M22.9527 43.4276V46.5455C22.5884 46.7143 22.0908 46.8119 21.6287 46.8119C21.14 46.8119 20.6424 46.7143 20.3047 46.5455V43.4276H22.9616H22.9527Z" fill="url(#paint33_linear_4047_27053)"/>
<path d="M20.2965 43.4274L11.8902 39.2259C11.1616 38.8617 11.1616 38.2665 11.8902 37.9023L20.2965 33.7008C21.0252 33.3366 22.2159 33.3366 22.9445 33.7008L31.3508 37.9023C32.0795 38.2665 32.0795 38.8617 31.3508 39.2259L22.9445 43.4274C22.2159 43.7916 21.0252 43.7916 20.2965 43.4274Z" fill="url(#paint34_linear_4047_27053)"/>
<path d="M20.2965 43.3298L11.8902 39.1281C11.1616 38.764 11.1616 38.1688 11.8902 37.8046L20.2965 33.6031C21.0252 33.2389 22.2159 33.2389 22.9445 33.6031L31.3508 37.8046C32.0795 38.1688 32.0795 38.764 31.3508 39.1281L22.9445 43.3298C22.2159 43.694 21.0252 43.694 20.2965 43.3298Z" fill="url(#paint35_linear_4047_27053)"/>
<path d="M27.3174 37.4058L27.1484 37.4503C26.3397 36.0202 22.4654 34.8032 20.0306 36.0734C19.5596 36.3133 19.2665 36.5619 19.1066 36.8018L18.9554 36.6863V37.2548L18.9732 37.2726C19.0087 37.7789 19.5685 38.2852 20.4838 38.8093C21.2569 39.2445 21.8346 39.6265 21.2659 39.9107C20.3062 40.3904 17.7291 39.1202 18.7688 38.605V38.1165L18.3956 38.0543L18.2091 38.3297C17.7203 38.0898 17.2581 37.85 16.7516 37.6012C16.2984 37.8233 16.0141 38.0632 15.8541 38.3208L15.7031 38.2674V38.8093L15.7209 38.8271C15.7653 40.5059 20.5639 42.2913 23.283 40.9323C23.985 40.5769 24.2604 40.2483 24.2959 39.9196L24.3137 39.9018V39.8308V39.3334H24.0827C23.7628 38.9159 23.1496 38.5162 22.5009 38.1165C21.8434 37.7079 21.3724 37.3436 22.0299 37.0505C22.8297 36.7041 24.3493 37.246 24.527 37.7612L24.2782 37.6989V38.1875C24.989 38.5428 25.5311 38.8093 26.2597 39.1824C26.9795 38.8271 27.2818 38.4185 27.2996 38.001L27.3174 37.9744V37.3881V37.4058Z" fill="url(#paint36_linear_4047_27053)"/>
<path d="M21.2632 39.4221C21.832 39.1378 21.2542 38.747 20.4811 38.3206C18.8372 37.3702 18.2774 36.4819 20.0279 35.5847C23.4847 33.7904 29.8294 36.9615 26.2571 38.7025C25.5196 38.3384 24.9864 38.063 24.2755 37.7077C25.3597 37.1658 23.0759 36.1178 22.0362 36.5619C21.3698 36.8461 21.8496 37.2192 22.4983 37.6278C23.9468 38.5249 25.3242 39.4221 23.2804 40.4436C19.8504 42.158 13.1057 38.8803 16.7401 37.1037C17.4421 37.4501 18.0464 37.7611 18.7573 38.1164C17.7176 38.6316 20.2946 39.9018 21.2543 39.4221H21.2632Z" fill="url(#paint37_linear_4047_27053)"/>
<path d="M21.2632 39.3245C21.832 39.0403 21.2542 38.6494 20.4811 38.2231C18.8372 37.2726 18.2774 36.3843 20.0279 35.4871C23.4847 33.6928 29.8294 36.8639 26.2571 38.6049C25.5196 38.2408 24.9864 37.9654 24.2755 37.6101C25.3597 37.0682 23.0759 36.02 22.0362 36.4642C21.3698 36.7484 21.8496 37.1216 22.4983 37.5302C23.9468 38.4273 25.3242 39.3244 23.2804 40.3459C19.8504 42.0603 13.1057 38.7827 16.7401 37.0061C17.4421 37.3526 18.0464 37.6634 18.7573 38.0187C17.7176 38.5339 20.2946 39.8042 21.2543 39.3245H21.2632Z" fill="url(#paint38_linear_4047_27053)"/>
<path d="M54.0246 52.8686C54.0246 53.1174 53.8292 53.3572 53.4827 53.5348L45.0764 57.763C44.7121 57.9318 44.2145 58.0294 43.7524 58.0294C43.2637 58.0294 42.766 57.9318 42.4284 57.763L34.0219 53.5348C33.2844 53.1707 33.2844 52.5755 34.0219 52.2113L42.4284 48.0097C43.1393 47.6455 44.3478 47.6455 45.0853 48.0097L49.9015 50.417L53.4916 52.2113C53.8381 52.3801 54.0335 52.6288 54.0335 52.8775L54.0246 52.8686Z" fill="url(#paint39_linear_4047_27053)"/>
<path d="M54.0222 49.5739V52.7184C54.0222 52.9671 53.8268 53.2069 53.4803 53.3846L45.074 57.6128C44.7097 57.7815 44.2121 57.8793 43.75 57.8793V49.5739H54.0222Z" fill="#9F9D8C"/>
<path d="M33.4688 49.5738V52.7183C33.4688 52.967 33.6641 53.2068 34.0107 53.3845L42.4171 57.6127C42.7815 57.7814 43.2791 57.8792 43.7412 57.8792V49.5738H33.4688Z" fill="#D3CDB9"/>
<path d="M45.0738 54.4859V57.6037C44.7095 57.7725 44.2119 57.8703 43.7498 57.8703C43.2611 57.8703 42.7635 57.7725 42.4258 57.6037V54.4859H45.0827H45.0738Z" fill="url(#paint40_linear_4047_27053)"/>
<path d="M42.4178 54.4856L34.0113 50.2841C33.2827 49.9199 33.2827 49.3247 34.0113 48.9605L42.4178 44.759C43.1465 44.3949 44.3372 44.3949 45.0659 44.759L53.4721 48.9605C54.2008 49.3247 54.2008 49.9199 53.4721 50.2841L45.0659 54.4856C44.3372 54.8498 43.1465 54.8498 42.4178 54.4856Z" fill="url(#paint41_linear_4047_27053)"/>
<path d="M42.4178 54.3879L34.0113 50.1864C33.2827 49.8222 33.2827 49.2271 34.0113 48.8629L42.4178 44.6614C43.1465 44.2972 44.3372 44.2972 45.0659 44.6614L53.4721 48.8629C54.2008 49.2271 54.2008 49.8222 53.4721 50.1864L45.0659 54.3879C44.3372 54.7521 43.1465 54.7521 42.4178 54.3879Z" fill="url(#paint42_linear_4047_27053)"/>
<path d="M49.4385 48.462L49.2697 48.5064C48.461 47.0763 44.5867 45.8593 42.1519 47.1296C41.6809 47.3694 41.3876 47.6182 41.2277 47.858L41.0767 47.7425V48.311L41.0945 48.3288C41.13 48.8351 41.6898 49.3414 42.6051 49.8655C43.3782 50.3008 43.9557 50.6827 43.3869 50.967C42.4272 51.4466 39.8504 50.1764 40.8901 49.6612V49.1726L40.5167 49.1105L40.3302 49.3858C39.8414 49.146 39.3794 48.9062 38.8729 48.6575C38.4197 48.8795 38.1354 49.1193 37.9754 49.3769L37.8242 49.3237V49.8655L37.842 49.8833C37.8864 51.5621 42.685 53.3475 45.4041 51.9885C46.1061 51.6332 46.3817 51.3045 46.4173 50.9758L46.435 50.9581V50.887V50.3896H46.204C45.8841 49.9809 45.2709 49.5723 44.6222 49.1726C43.9647 48.764 43.4937 48.3999 44.1512 48.1067C44.951 47.7603 46.4706 48.3021 46.6483 48.8173L46.3995 48.7552V49.2436C47.1104 49.599 47.6524 49.8654 48.3811 50.2385C49.1008 49.8832 49.4029 49.4746 49.4207 49.0571L49.4385 49.0305V48.4443V48.462Z" fill="url(#paint43_linear_4047_27053)"/>
<path d="M43.3863 50.4802C43.9551 50.196 43.3776 49.8052 42.6045 49.3788C40.9605 48.4283 40.4007 47.5401 42.1513 46.643C45.608 44.8487 51.9527 48.0198 48.3805 49.7608C47.6429 49.3966 47.1098 49.1213 46.3989 48.7659C47.483 48.2241 45.1992 47.1759 44.1595 47.62C43.4931 47.9043 43.973 48.2773 44.6305 48.6859C46.079 49.5831 47.4562 50.4803 45.4124 51.5018C41.9824 53.2161 35.2379 49.9384 38.8812 48.1619C39.5832 48.5083 40.1873 48.8192 40.8982 49.1745C39.8585 49.6897 42.4355 50.9599 43.3952 50.4802H43.3863Z" fill="url(#paint44_linear_4047_27053)"/>
<path d="M43.3863 50.3826C43.9551 50.0984 43.3776 49.7076 42.6045 49.2812C40.9605 48.3308 40.4007 47.4425 42.1513 46.5454C45.608 44.7511 51.9527 47.9222 48.3805 49.6632C47.6429 49.299 47.1098 49.0237 46.3989 48.6683C47.483 48.1265 45.1992 47.0783 44.1595 47.5224C43.4931 47.8067 43.973 48.1797 44.6305 48.5883C46.079 49.4855 47.4562 50.3827 45.4124 51.4042C41.9824 53.1185 35.2379 49.8408 38.8812 48.0643C39.5832 48.4107 40.1873 48.7216 40.8982 49.0769C39.8585 49.5921 42.4355 50.8623 43.3952 50.3826H43.3863Z" fill="url(#paint45_linear_4047_27053)"/>
<path d="M86.7107 11.7511V19.1238C86.7107 19.4435 86.4886 19.7366 86.071 19.932L66.4061 29.783C66.0595 29.9518 65.5708 30.0494 65.082 30.0494V8.20688C65.5708 8.20688 66.0684 8.30463 66.4061 8.4734L86.7107 11.7422V11.7511Z" fill="#4D4C50"/>
<path d="M65.0827 8.20688V30.0494C64.594 30.0494 64.123 29.9518 63.7587 29.783L44.0936 19.9587C43.7026 19.7366 43.4805 19.4435 43.4805 19.1238V11.7511L63.7587 8.48219C64.123 8.31341 64.594 8.21577 65.0827 8.21577V8.20688Z" fill="#75747A"/>
<path d="M66.4059 22.4104V29.7831C66.0593 29.9518 65.5706 30.0495 65.0818 30.0495C64.5931 30.0495 64.1221 29.9518 63.7578 29.7831V22.4104H66.4148H66.4059Z" fill="url(#paint46_linear_4047_27053)"/>
<path d="M44.0929 11.7582V19.9659C43.6753 19.7438 43.4531 19.4507 43.4531 19.1309V11.7582H44.0929Z" fill="url(#paint47_linear_4047_27053)"/>
<path d="M65.0849 22.6754C64.5873 22.6754 64.1163 22.5777 63.7608 22.4L44.0957 12.5669C43.687 12.3626 43.4648 12.0694 43.4648 11.7496C43.4648 11.4299 43.687 11.1456 44.0957 10.9413L63.7608 1.10818C64.1163 0.930526 64.5873 0.832764 65.0849 0.832764C65.5825 0.832764 66.0535 0.930526 66.4089 1.10818L86.0738 10.9413C86.4826 11.1456 86.7047 11.4299 86.7047 11.7496C86.7047 12.0694 86.4826 12.3537 86.0738 12.558L66.4089 22.3911C66.0535 22.5688 65.5825 22.6665 65.0849 22.6665V22.6754Z" fill="url(#paint48_linear_4047_27053)"/>
<path d="M65.0829 9.25531L55.8945 18.4401L55.9568 18.4933L63.7677 22.3929C64.1232 22.5705 64.5941 22.6683 65.0918 22.6683C65.5894 22.6683 66.0603 22.5705 66.4158 22.3929L74.2265 18.4933L74.2799 18.4401L65.0918 9.25531H65.0829Z" fill="url(#paint49_linear_4047_27053)"/>
<path d="M85.9738 12.1507L66.3087 21.9839C65.6333 22.3215 64.5314 22.3215 63.8472 21.9839L44.1823 12.1507C43.5069 11.8132 43.5069 11.2624 44.1823 10.9249L63.8472 1.09178C64.5225 0.754237 65.6244 0.754237 66.3087 1.09178L85.9738 10.9249C86.6491 11.2624 86.6491 11.8132 85.9738 12.1507Z" fill="#807F82"/>
<path d="M75.3723 11.6677C75.3723 11.9164 75.1769 12.1563 74.8303 12.3339L66.4241 16.5621C66.0598 16.7309 65.5621 16.8285 65.1001 16.8285C64.6113 16.8285 64.1135 16.7309 63.7758 16.5621L55.3696 12.3339C54.632 11.9697 54.632 11.3746 55.3696 11.0104L63.7758 6.80879C64.4867 6.4446 65.6954 6.4446 66.433 6.80879L71.2492 9.21608L74.8392 11.0104C75.1858 11.1792 75.3812 11.4279 75.3812 11.6766L75.3723 11.6677Z" fill="url(#paint50_linear_4047_27053)"/>
<path d="M75.3738 8.3728V11.5173C75.3738 11.766 75.1784 12.0059 74.8318 12.1835L66.4256 16.4117C66.0613 16.5805 65.5636 16.6782 65.1016 16.6782V8.3728H75.3738Z" fill="#4D4C50"/>
<path d="M54.8086 8.3728V11.5173C54.8086 11.766 55.004 12.0059 55.3505 12.1835L63.757 16.4117C64.1213 16.5805 64.6189 16.6782 65.081 16.6782V8.3728H54.8086Z" fill="#75747A"/>
<path d="M66.4217 13.285V16.4028C66.0574 16.5716 65.5598 16.6693 65.0977 16.6693C64.6089 16.6693 64.1111 16.5716 63.7734 16.4028V13.285H66.4306H66.4217Z" fill="url(#paint51_linear_4047_27053)"/>
<path d="M63.7576 13.2846L55.3512 9.08314C54.6225 8.71894 54.6225 8.12381 55.3512 7.75962L63.7576 3.55812C64.4863 3.19393 65.677 3.19393 66.4057 3.55812L74.8119 7.75962C75.5406 8.12381 75.5406 8.71894 74.8119 9.08314L66.4057 13.2846C65.677 13.6488 64.4863 13.6488 63.7576 13.2846Z" fill="url(#paint52_linear_4047_27053)"/>
<path d="M63.7576 13.187L55.3512 8.98548C54.6225 8.62129 54.6225 8.02615 55.3512 7.66196L63.7576 3.46046C64.4863 3.09627 65.677 3.09627 66.4057 3.46046L74.8119 7.66196C75.5406 8.02615 75.5406 8.62129 74.8119 8.98548L66.4057 13.187C65.677 13.5512 64.4863 13.5512 63.7576 13.187Z" fill="url(#paint53_linear_4047_27053)"/>
<path d="M70.7783 7.26104L70.6095 7.3055C69.8009 5.87538 65.9265 4.65841 63.4917 5.92863C63.0207 6.16847 62.7275 6.41724 62.5675 6.65708L62.4165 6.5416V7.1101L62.4343 7.12788C62.4699 7.6342 63.0296 8.1405 63.9449 8.66458C64.718 9.09983 65.2955 9.48178 64.7268 9.76602C63.7671 10.2457 61.1901 8.97549 62.2297 8.46029V7.9717L61.8566 7.90957L61.67 8.18488C61.1813 7.94504 60.7193 7.70526 60.2128 7.45654C59.7596 7.67861 59.4752 7.91839 59.3153 8.17598L59.1641 8.12274V8.66458L59.1819 8.68236C59.2263 10.3612 64.0248 12.1466 66.744 10.7876C67.446 10.4322 67.7216 10.1036 67.7571 9.77491L67.7747 9.75713V9.68611V9.18863H67.5438C67.2239 8.78002 66.6108 8.37142 65.9621 7.9717C65.3045 7.56309 64.8335 7.19895 65.4911 6.90582C66.2908 6.55939 67.8104 7.10117 67.9881 7.61637L67.7393 7.55424V8.04272C68.4502 8.39803 68.9922 8.66451 69.7209 9.03758C70.4407 8.68227 70.7427 8.27371 70.7605 7.85622L70.7783 7.82955V7.24336V7.26104Z" fill="url(#paint54_linear_4047_27053)"/>
<path d="M64.7381 9.27932C65.3068 8.99507 64.7293 8.60424 63.9562 8.17787C62.3123 7.22742 61.7525 6.33919 63.503 5.44203C66.9597 3.64773 73.3044 6.81886 69.7322 8.55987C68.9947 8.19568 68.4615 7.92032 67.7506 7.56501C68.8347 7.02317 66.551 5.97497 65.5113 6.41911C64.8448 6.70336 65.3247 7.07639 65.9823 7.48499C67.4307 8.38215 68.808 9.27934 66.7642 10.3008C63.3341 12.0152 56.5895 8.73748 60.2328 6.96094C60.9348 7.30737 61.5391 7.61828 62.2499 7.97358C61.2103 8.48878 63.7873 9.75898 64.747 9.27932H64.7381Z" fill="url(#paint55_linear_4047_27053)"/>
<path d="M64.7381 9.18169C65.3068 8.89744 64.7293 8.50661 63.9562 8.08024C62.3123 7.12979 61.7525 6.24156 63.503 5.34441C66.9597 3.5501 73.3044 6.72124 69.7322 8.46225C68.9947 8.09806 68.4615 7.8227 67.7506 7.46739C68.8347 6.92554 66.551 5.87735 65.5113 6.32148C64.8448 6.60573 65.3247 6.97876 65.9823 7.38737C67.4307 8.28452 68.808 9.18171 66.7642 10.2032C63.3341 11.9176 56.5895 8.63986 60.2328 6.86332C60.9348 7.20974 61.5391 7.52065 62.2499 7.87596C61.2103 8.39116 63.7873 9.66136 64.747 9.18169H64.7381Z" fill="url(#paint56_linear_4047_27053)"/>
<path d="M109.609 22.8913V30.2639C109.609 30.5837 109.387 30.8768 108.969 31.0722L89.3045 40.9231C88.9579 41.0919 88.4692 41.1897 87.9805 41.1897V19.3471C88.4692 19.3471 88.9668 19.4448 89.3045 19.6135L109.609 22.8824V22.8913Z" fill="#4D4C50"/>
<path d="M87.9811 19.3471V41.1897C87.4924 41.1897 87.0212 41.0919 86.6569 40.9231L66.992 31.0989C66.601 30.8768 66.3789 30.5837 66.3789 30.2639V22.8913L86.6569 19.6224C87.0212 19.4536 87.4924 19.356 87.9811 19.356V19.3471Z" fill="#75747A"/>
<path d="M89.3045 33.5486V40.9212C88.958 41.09 88.4692 41.1878 87.9805 41.1878C87.4918 41.1878 87.0206 41.09 86.6562 40.9212V33.5486H89.3134H89.3045Z" fill="url(#paint57_linear_4047_27053)"/>
<path d="M66.9913 22.8985V31.1061C66.5737 30.884 66.3516 30.5908 66.3516 30.2711V22.8985H66.9913Z" fill="url(#paint58_linear_4047_27053)"/>
<path d="M87.9833 33.8155C87.4857 33.8155 87.0145 33.7179 86.6591 33.5402L66.9942 23.707C66.5854 23.5027 66.3633 23.2097 66.3633 22.8899C66.3633 22.5701 66.5854 22.2858 66.9942 22.0815L86.6591 12.2484C87.0145 12.0708 87.4857 11.973 87.9833 11.973C88.4809 11.973 88.9519 12.0708 89.3073 12.2484L108.972 22.0815C109.381 22.2858 109.603 22.5701 109.603 22.8899C109.603 23.2097 109.381 23.4938 108.972 23.6981L89.3073 33.5313C88.9519 33.709 88.4809 33.8067 87.9833 33.8067V33.8155Z" fill="url(#paint59_linear_4047_27053)"/>
<path d="M87.9774 20.3936L78.7891 29.5783L78.8513 29.6316L86.6621 33.5311C87.0175 33.7088 87.4885 33.8065 87.9861 33.8065C88.4837 33.8065 88.9549 33.7088 89.3103 33.5311L97.121 29.6316L97.1744 29.5783L87.9861 20.3936H87.9774Z" fill="url(#paint60_linear_4047_27053)"/>
<path d="M108.872 23.2987L89.2071 33.1319C88.5318 33.4694 87.4299 33.4694 86.7456 33.1319L67.0807 23.2987C66.4054 22.9612 66.4054 22.4105 67.0807 22.0729L86.7456 12.2398C87.421 11.9023 88.5229 11.9023 89.2071 12.2398L108.872 22.0729C109.547 22.4105 109.547 22.9612 108.872 23.2987Z" fill="#807F82"/>
<defs>
<linearGradient id="paint0_linear_4047_27053" x1="42.413" y1="74.5263" x2="45.0699" y2="74.5263" gradientUnits="userSpaceOnUse">
<stop stop-color="#D3CDB9"/>
<stop offset="0.51" stop-color="#DFDCC7"/>
<stop offset="1" stop-color="#9F9D8C"/>
</linearGradient>
<linearGradient id="paint1_linear_4047_27053" x1="0" y1="53.0912" x2="0.639776" y2="53.0912" gradientUnits="userSpaceOnUse">
<stop stop-color="#C7C4AF"/>
<stop offset="1" stop-color="#D3CDB9"/>
</linearGradient>
<linearGradient id="paint2_linear_4047_27053" x1="22.2242" y1="53.2509" x2="87.3219" y2="18.943" gradientUnits="userSpaceOnUse">
<stop stop-color="#DFDDC9"/>
<stop offset="1" stop-color="#DED7C5"/>
</linearGradient>
<linearGradient id="paint3_linear_4047_27053" x1="39.4123" y1="55.8051" x2="52.0163" y2="59.1741" gradientUnits="userSpaceOnUse">
<stop stop-color="#DFDCCB"/>
<stop offset="0.49" stop-color="#FDFADE"/>
<stop offset="0.79" stop-color="#E8E5D0"/>
<stop offset="1" stop-color="#DFDCCB"/>
</linearGradient>
<linearGradient id="paint4_linear_4047_27053" x1="55.5793" y1="19.7008" x2="76.1418" y2="19.7008" gradientUnits="userSpaceOnUse">
<stop stop-color="#DBD8C3"/>
<stop offset="0.5" stop-color="#FDF9DF"/>
<stop offset="0.51" stop-color="#E3E0CA"/>
<stop offset="0.53" stop-color="#DCD9C4"/>
<stop offset="0.56" stop-color="#DBD8C3"/>
</linearGradient>
<linearGradient id="paint5_linear_4047_27053" x1="64.5341" y1="23.0058" x2="67.191" y2="23.0058" gradientUnits="userSpaceOnUse">
<stop stop-color="#D3CDB9"/>
<stop offset="0.51" stop-color="#DFDCC7"/>
<stop offset="1" stop-color="#9F9D8C"/>
</linearGradient>
<linearGradient id="paint6_linear_4047_27053" x1="55.5698" y1="16.4412" x2="76.1411" y2="16.4412" gradientUnits="userSpaceOnUse">
<stop stop-color="#DFDDC9"/>
<stop offset="0.46" stop-color="#DFDCC5"/>
<stop offset="0.56" stop-color="#DED8C5"/>
<stop offset="0.99" stop-color="#DED7C5"/>
</linearGradient>
<linearGradient id="paint7_linear_4047_27053" x1="65.851" y1="21.469" x2="65.851" y2="11.1827" gradientUnits="userSpaceOnUse">
<stop stop-color="#DBD8C3"/>
<stop offset="1" stop-color="#D3CDBC"/>
</linearGradient>
<linearGradient id="paint8_linear_4047_27053" x1="61.8341" y1="18.4564" x2="69.9457" y2="14.0658" gradientUnits="userSpaceOnUse">
<stop stop-color="#D1CCB7"/>
<stop offset="1" stop-color="#9F9D8C"/>
</linearGradient>
<linearGradient id="paint9_linear_4047_27053" x1="64.7256" y1="12.8445" x2="66.9367" y2="19.205" gradientUnits="userSpaceOnUse">
<stop stop-color="#D3CDBC"/>
<stop offset="0.46" stop-color="#DFDCC5"/>
<stop offset="0.51" stop-color="#D3D0BD"/>
<stop offset="0.59" stop-color="#C8C4B4"/>
<stop offset="0.7" stop-color="#C1BDB0"/>
<stop offset="1" stop-color="#C0BCAF"/>
</linearGradient>
<linearGradient id="paint10_linear_4047_27053" x1="61.7221" y1="17.8456" x2="70.0649" y2="13.606" gradientUnits="userSpaceOnUse">
<stop stop-color="#DBD8C3"/>
<stop offset="1" stop-color="#D3CDBC"/>
</linearGradient>
<linearGradient id="paint11_linear_4047_27053" x1="77.7004" y1="30.759" x2="98.2629" y2="30.759" gradientUnits="userSpaceOnUse">
<stop stop-color="#DBD8C3"/>
<stop offset="0.5" stop-color="#FDF9DF"/>
<stop offset="0.51" stop-color="#E3E0CA"/>
<stop offset="0.53" stop-color="#DCD9C4"/>
<stop offset="0.56" stop-color="#DBD8C3"/>
</linearGradient>
<linearGradient id="paint12_linear_4047_27053" x1="86.6552" y1="34.0641" x2="89.3121" y2="34.0641" gradientUnits="userSpaceOnUse">
<stop stop-color="#D3CDB9"/>
<stop offset="0.51" stop-color="#DFDCC7"/>
<stop offset="1" stop-color="#9F9D8C"/>
</linearGradient>
<linearGradient id="paint13_linear_4047_27053" x1="77.6898" y1="27.4994" x2="98.2613" y2="27.4994" gradientUnits="userSpaceOnUse">
<stop stop-color="#DFDDC9"/>
<stop offset="0.46" stop-color="#DFDCC5"/>
<stop offset="0.56" stop-color="#DED8C5"/>
<stop offset="0.99" stop-color="#DED7C5"/>
</linearGradient>
<linearGradient id="paint14_linear_4047_27053" x1="87.98" y1="32.5271" x2="87.98" y2="22.2409" gradientUnits="userSpaceOnUse">
<stop stop-color="#DBD8C3"/>
<stop offset="1" stop-color="#D3CDBC"/>
</linearGradient>
<linearGradient id="paint15_linear_4047_27053" x1="83.9553" y1="29.5147" x2="92.0669" y2="25.1239" gradientUnits="userSpaceOnUse">
<stop stop-color="#D1CCB7"/>
<stop offset="1" stop-color="#9F9D8C"/>
</linearGradient>
<linearGradient id="paint16_linear_4047_27053" x1="86.8439" y1="23.9027" x2="89.055" y2="30.2633" gradientUnits="userSpaceOnUse">
<stop stop-color="#D3CDBC"/>
<stop offset="0.46" stop-color="#DFDCC5"/>
<stop offset="0.51" stop-color="#D3D0BD"/>
<stop offset="0.59" stop-color="#C8C4B4"/>
<stop offset="0.7" stop-color="#C1BDB0"/>
<stop offset="1" stop-color="#C0BCAF"/>
</linearGradient>
<linearGradient id="paint17_linear_4047_27053" x1="83.8404" y1="28.9038" x2="92.1832" y2="24.664" gradientUnits="userSpaceOnUse">
<stop stop-color="#DBD8C3"/>
<stop offset="1" stop-color="#D3CDBC"/>
</linearGradient>
<linearGradient id="paint18_linear_4047_27053" x1="33.471" y1="30.759" x2="54.0246" y2="30.759" gradientUnits="userSpaceOnUse">
<stop stop-color="#DBD8C3"/>
<stop offset="0.5" stop-color="#FDF9DF"/>
<stop offset="0.51" stop-color="#E3E0CA"/>
<stop offset="0.53" stop-color="#DCD9C4"/>
<stop offset="0.56" stop-color="#DBD8C3"/>
</linearGradient>
<linearGradient id="paint19_linear_4047_27053" x1="42.4258" y1="34.0641" x2="45.0738" y2="34.0641" gradientUnits="userSpaceOnUse">
<stop stop-color="#D3CDB9"/>
<stop offset="0.51" stop-color="#DFDCC7"/>
<stop offset="1" stop-color="#9F9D8C"/>
</linearGradient>
<linearGradient id="paint20_linear_4047_27053" x1="33.4604" y1="27.4994" x2="54.023" y2="27.4994" gradientUnits="userSpaceOnUse">
<stop stop-color="#DFDDC9"/>
<stop offset="0.46" stop-color="#DFDCC5"/>
<stop offset="0.56" stop-color="#DED8C5"/>
<stop offset="0.99" stop-color="#DED7C5"/>
</linearGradient>
<linearGradient id="paint21_linear_4047_27053" x1="43.7417" y1="32.5271" x2="43.7417" y2="22.2409" gradientUnits="userSpaceOnUse">
<stop stop-color="#DBD8C3"/>
<stop offset="1" stop-color="#D3CDBC"/>
</linearGradient>
<linearGradient id="paint22_linear_4047_27053" x1="39.7259" y1="29.5147" x2="47.8286" y2="25.1239" gradientUnits="userSpaceOnUse">
<stop stop-color="#D1CCB7"/>
<stop offset="1" stop-color="#9F9D8C"/>
</linearGradient>
<linearGradient id="paint23_linear_4047_27053" x1="42.6134" y1="23.9027" x2="44.8156" y2="30.2633" gradientUnits="userSpaceOnUse">
<stop stop-color="#D3CDBC"/>
<stop offset="0.46" stop-color="#DFDCC5"/>
<stop offset="0.51" stop-color="#D3D0BD"/>
<stop offset="0.59" stop-color="#C8C4B4"/>
<stop offset="0.7" stop-color="#C1BDB0"/>
<stop offset="1" stop-color="#C0BCAF"/>
</linearGradient>
<linearGradient id="paint24_linear_4047_27053" x1="39.601" y1="28.9038" x2="47.9437" y2="24.6641" gradientUnits="userSpaceOnUse">
<stop stop-color="#DBD8C3"/>
<stop offset="1" stop-color="#D3CDBC"/>
</linearGradient>
<linearGradient id="paint25_linear_4047_27053" x1="55.5793" y1="41.8192" x2="76.1418" y2="41.8192" gradientUnits="userSpaceOnUse">
<stop stop-color="#DBD8C3"/>
<stop offset="0.5" stop-color="#FDF9DF"/>
<stop offset="0.51" stop-color="#E3E0CA"/>
<stop offset="0.53" stop-color="#DCD9C4"/>
<stop offset="0.56" stop-color="#DBD8C3"/>
</linearGradient>
<linearGradient id="paint26_linear_4047_27053" x1="64.5341" y1="45.1242" x2="67.191" y2="45.1242" gradientUnits="userSpaceOnUse">
<stop stop-color="#D3CDB9"/>
<stop offset="0.51" stop-color="#DFDCC7"/>
<stop offset="1" stop-color="#9F9D8C"/>
</linearGradient>
<linearGradient id="paint27_linear_4047_27053" x1="55.5698" y1="38.5597" x2="76.1411" y2="38.5597" gradientUnits="userSpaceOnUse">
<stop stop-color="#DFDDC9"/>
<stop offset="0.46" stop-color="#DFDCC5"/>
<stop offset="0.56" stop-color="#DED8C5"/>
<stop offset="0.99" stop-color="#DED7C5"/>
</linearGradient>
<linearGradient id="paint28_linear_4047_27053" x1="65.851" y1="43.5874" x2="65.851" y2="33.3011" gradientUnits="userSpaceOnUse">
<stop stop-color="#DBD8C3"/>
<stop offset="1" stop-color="#D3CDBC"/>
</linearGradient>
<linearGradient id="paint29_linear_4047_27053" x1="61.8341" y1="40.5768" x2="69.9457" y2="36.1862" gradientUnits="userSpaceOnUse">
<stop stop-color="#D1CCB7"/>
<stop offset="1" stop-color="#9F9D8C"/>
</linearGradient>
<linearGradient id="paint30_linear_4047_27053" x1="64.7256" y1="34.9629" x2="66.9368" y2="41.3235" gradientUnits="userSpaceOnUse">
<stop stop-color="#D3CDBC"/>
<stop offset="0.46" stop-color="#DFDCC5"/>
<stop offset="0.51" stop-color="#D3D0BD"/>
<stop offset="0.59" stop-color="#C8C4B4"/>
<stop offset="0.7" stop-color="#C1BDB0"/>
<stop offset="1" stop-color="#C0BCAF"/>
</linearGradient>
<linearGradient id="paint31_linear_4047_27053" x1="61.7221" y1="39.964" x2="70.0648" y2="35.7155" gradientUnits="userSpaceOnUse">
<stop stop-color="#DBD8C3"/>
<stop offset="1" stop-color="#D3CDBC"/>
</linearGradient>
<linearGradient id="paint32_linear_4047_27053" x1="11.341" y1="41.8192" x2="31.9035" y2="41.8192" gradientUnits="userSpaceOnUse">
<stop stop-color="#DBD8C3"/>
<stop offset="0.5" stop-color="#FDF9DF"/>
<stop offset="0.51" stop-color="#E3E0CA"/>
<stop offset="0.53" stop-color="#DCD9C4"/>
<stop offset="0.56" stop-color="#DBD8C3"/>
</linearGradient>
<linearGradient id="paint33_linear_4047_27053" x1="20.2958" y1="45.1242" x2="22.9527" y2="45.1242" gradientUnits="userSpaceOnUse">
<stop stop-color="#D3CDB9"/>
<stop offset="0.51" stop-color="#DFDCC7"/>
<stop offset="1" stop-color="#9F9D8C"/>
</linearGradient>
<linearGradient id="paint34_linear_4047_27053" x1="11.3304" y1="38.5597" x2="31.9017" y2="38.5597" gradientUnits="userSpaceOnUse">
<stop stop-color="#DFDDC9"/>
<stop offset="0.46" stop-color="#DFDCC5"/>
<stop offset="0.56" stop-color="#DED8C5"/>
<stop offset="0.99" stop-color="#DED7C5"/>
</linearGradient>
<linearGradient id="paint35_linear_4047_27053" x1="21.6205" y1="43.5874" x2="21.6205" y2="33.3011" gradientUnits="userSpaceOnUse">
<stop stop-color="#DBD8C3"/>
<stop offset="1" stop-color="#D3CDBC"/>
</linearGradient>
<linearGradient id="paint36_linear_4047_27053" x1="17.5959" y1="40.577" x2="25.7075" y2="36.1862" gradientUnits="userSpaceOnUse">
<stop stop-color="#D1CCB7"/>
<stop offset="1" stop-color="#9F9D8C"/>
</linearGradient>
<linearGradient id="paint37_linear_4047_27053" x1="20.4812" y1="34.9629" x2="22.6924" y2="41.3235" gradientUnits="userSpaceOnUse">
<stop stop-color="#D3CDBC"/>
<stop offset="0.46" stop-color="#DFDCC5"/>
<stop offset="0.51" stop-color="#D3D0BD"/>
<stop offset="0.59" stop-color="#C8C4B4"/>
<stop offset="0.7" stop-color="#C1BDB0"/>
<stop offset="1" stop-color="#C0BCAF"/>
</linearGradient>
<linearGradient id="paint38_linear_4047_27053" x1="17.4777" y1="39.964" x2="25.8204" y2="35.7244" gradientUnits="userSpaceOnUse">
<stop stop-color="#DBD8C3"/>
<stop offset="1" stop-color="#D3CDBC"/>
</linearGradient>
<linearGradient id="paint39_linear_4047_27053" x1="33.471" y1="52.8775" x2="54.0246" y2="52.8775" gradientUnits="userSpaceOnUse">
<stop stop-color="#DBD8C3"/>
<stop offset="0.5" stop-color="#FDF9DF"/>
<stop offset="0.51" stop-color="#E3E0CA"/>
<stop offset="0.53" stop-color="#DCD9C4"/>
<stop offset="0.56" stop-color="#DBD8C3"/>
</linearGradient>
<linearGradient id="paint40_linear_4047_27053" x1="42.4258" y1="56.1825" x2="45.0738" y2="56.1825" gradientUnits="userSpaceOnUse">
<stop stop-color="#D3CDB9"/>
<stop offset="0.51" stop-color="#DFDCC7"/>
<stop offset="1" stop-color="#9F9D8C"/>
</linearGradient>
<linearGradient id="paint41_linear_4047_27053" x1="33.4604" y1="49.6179" x2="54.023" y2="49.6179" gradientUnits="userSpaceOnUse">
<stop stop-color="#DFDDC9"/>
<stop offset="0.46" stop-color="#DFDCC5"/>
<stop offset="0.56" stop-color="#DED8C5"/>
<stop offset="0.99" stop-color="#DED7C5"/>
</linearGradient>
<linearGradient id="paint42_linear_4047_27053" x1="43.7417" y1="54.6455" x2="43.7417" y2="44.3594" gradientUnits="userSpaceOnUse">
<stop stop-color="#DBD8C3"/>
<stop offset="1" stop-color="#D3CDBC"/>
</linearGradient>
<linearGradient id="paint43_linear_4047_27053" x1="39.7259" y1="51.6332" x2="47.8287" y2="47.2425" gradientUnits="userSpaceOnUse">
<stop stop-color="#D1CCB7"/>
<stop offset="1" stop-color="#9F9D8C"/>
</linearGradient>
<linearGradient id="paint44_linear_4047_27053" x1="42.6134" y1="46.0212" x2="44.8156" y2="52.3817" gradientUnits="userSpaceOnUse">
<stop stop-color="#D3CDBC"/>
<stop offset="0.46" stop-color="#DFDCC5"/>
<stop offset="0.51" stop-color="#D3D0BD"/>
<stop offset="0.59" stop-color="#C8C4B4"/>
<stop offset="0.7" stop-color="#C1BDB0"/>
<stop offset="1" stop-color="#C0BCAF"/>
</linearGradient>
<linearGradient id="paint45_linear_4047_27053" x1="39.601" y1="51.0222" x2="47.9437" y2="46.7737" gradientUnits="userSpaceOnUse">
<stop stop-color="#DBD8C3"/>
<stop offset="1" stop-color="#D3CDBC"/>
</linearGradient>
<linearGradient id="paint46_linear_4047_27053" x1="63.7578" y1="26.2299" x2="66.4059" y2="26.2299" gradientUnits="userSpaceOnUse">
<stop stop-color="#75747A"/>
<stop offset="0.51" stop-color="#838286"/>
<stop offset="1" stop-color="#4D4C50"/>
</linearGradient>
<linearGradient id="paint47_linear_4047_27053" x1="43.4531" y1="15.862" x2="44.0929" y2="15.862" gradientUnits="userSpaceOnUse">
<stop stop-color="#6A696D"/>
<stop offset="1" stop-color="#75747A"/>
</linearGradient>
<linearGradient id="paint48_linear_4047_27053" x1="54.3059" y1="17.4701" x2="76.2598" y2="5.82684" gradientUnits="userSpaceOnUse">
<stop stop-color="#848386"/>
<stop offset="1" stop-color="#818186"/>
</linearGradient>
<linearGradient id="paint49_linear_4047_27053" x1="60.7565" y1="14.8852" x2="73.3604" y2="18.2542" gradientUnits="userSpaceOnUse">
<stop stop-color="#858486"/>
<stop offset="0.49" stop-color="#ACA9B0"/>
<stop offset="0.56" stop-color="#A4A2A8"/>
<stop offset="0.84" stop-color="#8D8C8F"/>
<stop offset="1" stop-color="#858486"/>
</linearGradient>
<linearGradient id="paint50_linear_4047_27053" x1="54.8097" y1="11.6765" x2="75.3723" y2="11.6765" gradientUnits="userSpaceOnUse">
<stop stop-color="#807F82"/>
<stop offset="0.5" stop-color="#B9B7BD"/>
<stop offset="0.51" stop-color="#939296"/>
<stop offset="0.52" stop-color="#88878A"/>
<stop offset="0.53" stop-color="#818083"/>
<stop offset="0.56" stop-color="#807F82"/>
</linearGradient>
<linearGradient id="paint51_linear_4047_27053" x1="63.7646" y1="14.9816" x2="66.4217" y2="14.9816" gradientUnits="userSpaceOnUse">
<stop stop-color="#75747A"/>
<stop offset="0.51" stop-color="#838286"/>
<stop offset="1" stop-color="#4D4C50"/>
</linearGradient>
<linearGradient id="paint52_linear_4047_27053" x1="54.8002" y1="8.41694" x2="75.3718" y2="8.41694" gradientUnits="userSpaceOnUse">
<stop stop-color="#848386"/>
<stop offset="0.46" stop-color="#828186"/>
<stop offset="0.99" stop-color="#818186"/>
</linearGradient>
<linearGradient id="paint53_linear_4047_27053" x1="65.0816" y1="13.4446" x2="65.0816" y2="3.15845" gradientUnits="userSpaceOnUse">
<stop stop-color="#807F82"/>
<stop offset="1" stop-color="#77777B"/>
</linearGradient>
<linearGradient id="paint54_linear_4047_27053" x1="61.0657" y1="10.4322" x2="69.1774" y2="6.04156" gradientUnits="userSpaceOnUse">
<stop stop-color="#737278"/>
<stop offset="1" stop-color="#4D4C50"/>
</linearGradient>
<linearGradient id="paint55_linear_4047_27053" x1="63.9561" y1="4.82025" x2="66.1672" y2="11.1808" gradientUnits="userSpaceOnUse">
<stop stop-color="#77777B"/>
<stop offset="0.46" stop-color="#828186"/>
<stop offset="0.55" stop-color="#77767A"/>
<stop offset="0.67" stop-color="#707073"/>
<stop offset="1" stop-color="#6F6F72"/>
</linearGradient>
<linearGradient id="paint56_linear_4047_27053" x1="60.9526" y1="9.82127" x2="69.2954" y2="5.58152" gradientUnits="userSpaceOnUse">
<stop stop-color="#807F82"/>
<stop offset="1" stop-color="#77777B"/>
</linearGradient>
<linearGradient id="paint57_linear_4047_27053" x1="86.6562" y1="37.3682" x2="89.3045" y2="37.3682" gradientUnits="userSpaceOnUse">
<stop stop-color="#75747A"/>
<stop offset="0.51" stop-color="#838286"/>
<stop offset="1" stop-color="#4D4C50"/>
</linearGradient>
<linearGradient id="paint58_linear_4047_27053" x1="66.3516" y1="27.0023" x2="66.9913" y2="27.0023" gradientUnits="userSpaceOnUse">
<stop stop-color="#6A696D"/>
<stop offset="1" stop-color="#75747A"/>
</linearGradient>
<linearGradient id="paint59_linear_4047_27053" x1="77.2043" y1="28.6103" x2="99.1582" y2="16.967" gradientUnits="userSpaceOnUse">
<stop stop-color="#848386"/>
<stop offset="1" stop-color="#818186"/>
</linearGradient>
<linearGradient id="paint60_linear_4047_27053" x1="83.6483" y1="26.027" x2="96.2585" y2="29.3898" gradientUnits="userSpaceOnUse">
<stop stop-color="#858486"/>
<stop offset="0.49" stop-color="#ACA9B0"/>
<stop offset="0.56" stop-color="#A4A2A8"/>
<stop offset="0.84" stop-color="#8D8C8F"/>
<stop offset="1" stop-color="#858486"/>
</linearGradient>
</defs>
</svg>
