<svg width="635" height="135" viewBox="0 0 635 135" fill="none" xmlns="http://www.w3.org/2000/svg">
<path d="M562.517 117.507H544.056V18.0988H562.517V57.5782C565.642 52.1817 573.31 48.7734 580.127 48.7734C596.6 48.7734 613.926 57.1522 613.926 82.9983V117.507H595.322V82.8563C595.464 69.5072 587.795 64.3948 579.843 64.2528C571.322 64.2528 562.517 69.6492 562.517 82.7143V117.507Z" fill="#EEEBE2"/>
<path d="M501.116 118.927C480.382 118.927 465.187 104.868 465.187 83.9924C465.187 62.6906 479.53 48.4894 501.116 48.4894C515.459 48.4894 528.666 54.4539 533.637 71.7794L517.873 74.4776C514.465 65.8149 507.08 64.5368 501.116 64.5368C490.039 64.5368 483.648 73.0575 483.648 83.9924C483.648 94.5013 490.465 103.022 501.116 103.022C506.796 103.022 513.897 101.744 518.015 91.8031L534.063 95.3534C529.234 112.395 515.175 118.927 501.116 118.927Z" fill="#EEEBE2"/>
<path d="M420.541 118.643C399.665 118.643 384.754 104.442 384.754 83.7084C384.754 62.9746 399.807 48.7734 420.967 48.7734C442.837 48.7734 456.47 63.4007 456.47 85.8386C456.47 87.2587 456.47 88.8208 456.328 90.383H403.499C405.204 100.324 414.292 103.164 422.103 103.164C428.351 103.164 434.742 101.744 437.724 96.3475L452.636 101.602C445.393 115.093 432.896 118.643 420.541 118.643ZM403.499 76.6078H438.718C436.872 68.0871 428.636 64.1107 421.109 64.1107C412.872 64.1107 405.346 68.5131 403.499 76.6078Z" fill="#EEEBE2"/>
<path d="M364.196 118.785C345.025 118.643 334.658 106.43 334.658 89.1049V63.6847H322.161V49.9095H334.658V18.0988H352.693V49.9095H376.836V63.6847H352.693V89.1049C352.551 97.3416 358.516 103.306 366.611 103.306C369.451 103.306 372.575 102.596 375.841 100.892L380.67 114.241C374.279 117.507 368.883 118.785 364.196 118.785Z" fill="#EEEBE2"/>
<path d="M261.435 117.507H242.974V18.0988H261.435V57.5782C264.559 52.1817 272.228 48.7734 279.045 48.7734C295.518 48.7734 312.843 57.1522 312.843 82.9983V117.507H294.24V82.8563C294.382 69.5072 286.713 64.3948 278.761 64.2528C270.24 64.2528 261.435 69.6492 261.435 82.7143V117.507Z" fill="#EEEBE2"/>
<path d="M196.53 118.927C178.921 118.927 163.299 113.105 162.163 95.3534L179.773 95.6374C180.199 102.454 188.293 104.158 196.956 104.158C206.755 104.158 212.862 101.176 212.862 97.0575C212.862 93.6492 208.459 91.377 197.098 90.951C181.903 90.0989 163.441 87.9688 163.441 70.5013C163.441 53.6018 182.329 48.4894 196.246 48.4894C211.441 48.4894 228.625 53.0338 230.045 71.3533L213.004 71.9214C211.583 63.9687 200.648 63.1167 196.388 63.1167C188.577 63.1167 181.619 65.2468 181.619 70.3593C181.619 74.9036 189.856 75.7557 198.944 76.3238C214.708 77.4599 233.027 79.59 231.749 98.7617C229.761 112.537 212.72 118.927 196.53 118.927Z" fill="#EEEBE2"/>
<path d="M109.578 118.927C95.5186 118.785 81.3174 112.395 81.3174 96.4895C81.3174 81.0102 95.6606 75.7557 110.572 75.7557H132.016C129.601 67.8031 121.933 64.2528 114.122 64.2528C107.306 64.2528 100.205 67.093 96.5127 72.0634L84.8677 61.9806C92.1103 50.7616 103.755 47.6374 115.4 47.6374C132.868 47.6374 150.903 58.1462 150.903 77.3179V103.022L151.613 117.507H135.14L133.436 107.992C128.749 115.377 118.809 118.927 109.578 118.927ZM111.424 103.306C119.803 103.306 130.88 100.608 132.442 89.1049H110.004C105.033 89.1049 99.6369 91.6611 99.6369 96.3475C99.6369 101.602 106.88 103.306 111.424 103.306Z" fill="#EEEBE2"/>
<path d="M18.4616 117.507H0V18.0988H18.4616V57.5782C21.5858 52.1817 29.2545 48.7734 36.071 48.7734C52.5444 48.7734 69.8699 57.1522 69.8699 82.9983V117.507H51.2663V82.8563C51.4083 69.5072 43.7397 64.3948 35.787 64.2528C27.2663 64.2528 18.4616 69.6492 18.4616 82.7143V117.507Z" fill="#EEEBE2"/>
<path d="M605.33 14.8092C608.66 16.8343 609.736 21.7131 608.129 24.2951C605.903 28.6151 605.095 28.8347 600.396 35.8454C600.145 36.22 600.255 36.7279 600.638 36.9662C601.026 37.2079 601.538 37.075 601.759 36.6747C605.84 29.2992 605.378 29.9531 608.818 24.7242C610.811 21.5218 616.153 21.4085 617.664 22.3442C623.598 26.02 621.325 24.8949 627.975 29.3327C628.287 29.5408 628.704 29.5115 628.981 29.2585C629.392 28.8821 629.307 28.2095 628.818 27.9421C622.088 24.2632 623.703 25.7043 618.007 21.7927C615.069 19.7756 614.739 14.9864 615.777 13.1633C619.292 6.99308 618.748 8.50416 623.452 1.81937C623.715 1.44511 623.61 0.926235 623.221 0.684399C622.839 0.446397 622.335 0.572003 622.109 0.961857C617.928 8.1912 619.199 6.64545 615.052 12.712C613.232 15.3743 608.012 15.5713 605.737 14.1553C599.502 10.5507 601.551 11.4818 595.161 6.97999C594.75 6.69072 594.178 6.80499 593.913 7.23139C593.651 7.65103 593.792 8.20544 594.22 8.45315C600.971 12.3626 599.676 11.3704 605.33 14.8092Z" fill="#EEEBE2"/>
<path fill-rule="evenodd" clip-rule="evenodd" d="M607.638 24.0167L607.65 23.9972C608.346 22.8784 608.494 21.1864 608.037 19.4901C607.582 17.8045 606.555 16.2136 605.037 15.2909C601.902 13.3841 600.923 12.8506 599.519 12.0863C598.387 11.4694 596.978 10.7021 593.937 8.94103C593.236 8.53492 593.003 7.62539 593.434 6.93349C593.872 6.23024 594.812 6.04452 595.486 6.51913C597.795 8.14605 599.005 9.0639 599.892 9.7373C601.48 10.9425 602.037 11.3647 606.019 13.6673L606.027 13.6719L606.035 13.6768C607.029 14.2954 608.762 14.5992 610.502 14.4028C612.245 14.206 613.81 13.5298 614.587 12.3938C617.307 8.41459 617.673 7.74679 618.805 5.68117C619.392 4.60947 620.186 3.16151 621.621 0.679607C622.006 0.0137606 622.866 -0.200334 623.519 0.205811C624.182 0.61844 624.363 1.50417 623.913 2.1438C622.265 4.48606 621.262 5.82291 620.506 6.82892C619.091 8.71478 618.548 9.43803 616.267 13.4424C615.839 14.1927 615.648 15.6928 615.955 17.2996C616.258 18.8885 617.02 20.4317 618.326 21.328C621.898 23.7806 622.54 24.0956 624.228 24.9229C625.219 25.4088 626.571 26.0714 629.088 27.4475C629.911 27.8977 630.062 29.0333 629.362 29.6744C628.891 30.1049 628.187 30.1518 627.662 29.8017C624.689 27.8174 623.491 26.9397 622.552 26.2521C622.438 26.1686 622.328 26.0878 622.219 26.0082C621.229 25.2865 620.327 24.6569 617.367 22.8234C617.097 22.6561 616.58 22.4998 615.871 22.4322C615.178 22.3662 614.357 22.3904 613.519 22.5377C611.826 22.8353 610.174 23.6121 609.297 25.0221L609.289 25.0342C606.389 29.4414 606.28 29.64 603.844 34.0624C603.401 34.8673 602.881 35.8121 602.253 36.9476C601.875 37.6305 601.002 37.857 600.34 37.4448C599.687 37.0386 599.498 36.1718 599.927 35.5316C601.847 32.6683 603.122 30.9302 604.103 29.5922C604.327 29.2869 604.536 29.0024 604.733 28.7302C605.788 27.2769 606.53 26.1665 607.627 24.037L607.638 24.0167ZM619.828 23.7033C619.252 23.3342 618.549 22.8926 617.664 22.3442C616.153 21.4085 610.811 21.5218 608.818 24.7242C605.906 29.1497 605.79 29.3613 603.349 33.7933C602.906 34.5978 602.386 35.5415 601.759 36.6747C601.538 37.075 601.026 37.2079 600.638 36.9662C600.255 36.7279 600.145 36.22 600.396 35.8454C602.308 32.9929 603.575 31.2646 604.557 29.927C605.987 27.9772 606.809 26.8573 608.129 24.2951C609.736 21.7131 608.66 16.8343 605.33 14.8092C602.194 12.9017 601.195 12.3576 599.776 11.584C598.637 10.9629 597.226 10.194 594.22 8.45315C593.792 8.20544 593.651 7.65103 593.913 7.23139C594.178 6.80499 594.75 6.69072 595.161 6.97999C597.439 8.58494 598.645 9.49937 599.536 10.175C601.143 11.3944 601.725 11.8358 605.737 14.1553C608.012 15.5713 613.232 15.3743 615.052 12.712C617.788 8.71007 618.165 8.02077 619.306 5.93982C619.895 4.86624 620.686 3.42223 622.109 0.961857C622.335 0.572003 622.839 0.446397 623.221 0.684399C623.61 0.926235 623.715 1.44511 623.452 1.81937C621.824 4.13305 620.825 5.46494 620.068 6.4733C618.638 8.37834 618.075 9.12867 615.777 13.1633C614.739 14.9864 615.069 19.7756 618.007 21.7927C618.852 22.3731 619.536 22.8356 620.111 23.2145C620.43 23.4252 620.715 23.61 620.976 23.7749C622.243 24.5776 622.914 24.9067 624.003 25.4411C624.999 25.9299 626.345 26.5904 628.818 27.9421C629.307 28.2095 629.392 28.8821 628.981 29.2585C628.704 29.5115 628.287 29.5408 627.975 29.3327C625.011 27.3549 623.82 26.4821 622.884 25.7967C622.197 25.2933 621.648 24.8911 620.637 24.2267C620.396 24.0687 620.129 23.8958 619.828 23.7033Z" fill="#EEEBE2"/>
</svg>
