<svg width="110" height="39" viewBox="0 0 110 39" fill="none" xmlns="http://www.w3.org/2000/svg">
<path d="M44.5209 28.0009V36.2116H43.5266V28.0009H44.5209ZM48.0542 30.4278L45.5312 33.1273L44.1199 34.5919L44.0398 33.5389L45.0501 32.3308L46.8462 30.4278H48.0542ZM47.1509 36.2116L45.0875 33.4533L45.6007 32.5713L48.3162 36.2116H47.1509Z" fill="#242424"/>
<path d="M41.3672 32.7631V33.5514H40.568C40.1958 33.5514 39.8856 33.5915 39.6375 33.6718C39.3966 33.7448 39.2142 33.8542 39.0901 34.0002C38.9733 34.1462 38.9149 34.3323 38.9149 34.5585C38.9149 34.7994 38.9843 34.9928 39.123 35.1388C39.2616 35.2774 39.4477 35.3796 39.6813 35.4453C39.9148 35.5037 40.1776 35.5329 40.4695 35.5329C40.8782 35.5329 41.2358 35.4854 41.5424 35.3906C41.8562 35.2957 42.1335 35.1898 42.3744 35.0731V35.916C42.2284 35.9963 42.0606 36.0693 41.8708 36.135C41.681 36.1934 41.4657 36.2372 41.2249 36.2664C40.984 36.3029 40.714 36.3211 40.4148 36.3211C39.8601 36.3211 39.4003 36.2481 39.0354 36.1021C38.6704 35.9489 38.3968 35.7445 38.2143 35.4891C38.0391 35.2263 37.9516 34.9344 37.9516 34.6133C37.9516 34.3213 38.0099 34.0841 38.1267 33.9017C38.2508 33.7119 38.4114 33.5623 38.6084 33.4528C38.8055 33.336 39.0208 33.2448 39.2543 33.1791V33.1244C38.9259 33.0222 38.6595 32.8653 38.4551 32.6536C38.2581 32.4347 38.1596 32.1464 38.1596 31.7888C38.1596 31.4604 38.2544 31.1794 38.4442 30.9458C38.6413 30.7123 38.9076 30.5371 39.2434 30.4203C39.5864 30.2963 39.9769 30.2342 40.4148 30.2342C40.6994 30.2342 40.9549 30.2525 41.1811 30.289C41.4074 30.3182 41.619 30.3656 41.8161 30.4313C42.0131 30.4897 42.2065 30.5627 42.3963 30.6502L42.035 31.4166C41.7942 31.3071 41.546 31.2159 41.2906 31.1429C41.0424 31.0699 40.7469 31.0334 40.4038 31.0334C39.9659 31.0334 39.6338 31.1027 39.4076 31.2414C39.1886 31.3801 39.0792 31.5881 39.0792 31.8654C39.0792 32.1866 39.2288 32.4165 39.528 32.5551C39.8345 32.6938 40.2433 32.7631 40.7542 32.7631H41.3672Z" fill="#242424"/>
<path d="M37.0746 30.4278V31.1868H33.9474V30.4278H37.0746ZM35.0058 29.0219H35.9948V34.779C35.9948 34.975 36.0251 35.1229 36.0856 35.2227C36.1462 35.3225 36.2246 35.3884 36.3208 35.4205C36.4171 35.4526 36.5204 35.4686 36.6309 35.4686C36.7128 35.4686 36.7984 35.4615 36.8875 35.4472C36.9801 35.4294 37.0496 35.4151 37.0959 35.4044L37.1013 36.2116C37.0229 36.2366 36.9195 36.2597 36.7912 36.2811C36.6665 36.3061 36.5151 36.3185 36.3369 36.3185C36.0945 36.3185 35.8718 36.2704 35.6687 36.1742C35.4656 36.078 35.3034 35.9176 35.1822 35.6931C35.0646 35.465 35.0058 35.1586 35.0058 34.7737V29.0219Z" fill="#242424"/>
<path d="M30.737 27.8367C30.8976 27.8367 31.0472 27.8549 31.1859 27.8914C31.3245 27.9206 31.4304 27.9608 31.5033 28.0119V28.7453C31.4449 28.7162 31.361 28.6906 31.2515 28.6687C31.1421 28.6395 31.0362 28.6249 30.9341 28.6249C30.7078 28.6249 30.5363 28.6943 30.4195 28.8329C30.31 28.9643 30.2553 29.2453 30.2553 29.6759V37.0108C30.2553 37.4852 30.1896 37.8538 30.0583 38.1165C29.9269 38.3866 29.7517 38.5727 29.5328 38.6748C29.3138 38.7843 29.073 38.8391 28.8102 38.8391C28.6497 38.8391 28.5 38.8208 28.3614 38.7843C28.23 38.7551 28.1242 38.715 28.0439 38.6639V37.9304C28.1023 37.9596 28.1899 37.9851 28.3066 38.007C28.4161 38.0362 28.5183 38.0508 28.6132 38.0508C28.8394 38.0508 29.0073 37.9815 29.1168 37.8428C29.2335 37.7114 29.2919 37.4305 29.2919 36.9999V29.6649C29.2919 29.1833 29.3576 28.811 29.489 28.5483C29.6203 28.2855 29.7955 28.1031 30.0145 28.0009C30.2407 27.8914 30.4816 27.8367 30.737 27.8367Z" fill="#242424"/>
<path d="M23.1174 35.2334V32.3628C23.1174 32.1063 23.0729 31.8871 22.9838 31.7053C22.8982 31.52 22.7699 31.3793 22.5989 31.2831C22.4278 31.1833 22.2194 31.1334 21.9735 31.1334C21.7098 31.1334 21.4799 31.1797 21.2839 31.2724C21.0879 31.365 20.9364 31.488 20.8295 31.6412C20.7226 31.7944 20.6692 31.9637 20.6692 32.149L19.6856 32.0528C19.6856 31.8033 19.7408 31.5735 19.8513 31.3632C19.9618 31.153 20.1168 30.9694 20.3164 30.8126C20.5195 30.6558 20.76 30.5347 21.038 30.4492C21.3195 30.3636 21.6314 30.3209 21.9735 30.3209C22.394 30.3209 22.761 30.3975 23.0746 30.5507C23.3918 30.704 23.6377 30.932 23.8123 31.2349C23.9905 31.5379 24.0796 31.9174 24.0796 32.3735V35.0463L23.1174 35.2334ZM23.3366 32.8119V33.5602H21.9414C21.6314 33.5602 21.3712 33.6101 21.1609 33.7099C20.9507 33.8061 20.7921 33.9344 20.6852 34.0948C20.5783 34.2516 20.5248 34.4227 20.5248 34.608C20.5248 34.779 20.564 34.934 20.6424 35.073C20.7244 35.2084 20.8456 35.3171 21.0059 35.3991C21.1699 35.4775 21.3766 35.5167 21.626 35.5167C21.8184 35.5167 22.0144 35.4811 22.214 35.4098C22.4171 35.335 22.6025 35.2405 22.7699 35.1265C22.941 35.0089 23.0782 34.8859 23.1816 34.7576C23.2885 34.6293 23.3437 34.51 23.3473 34.3995L23.8604 35.1692C23.7642 35.3439 23.611 35.5203 23.4007 35.6984C23.194 35.8766 22.9268 36.0263 22.5989 36.1475C22.2746 36.2651 21.8862 36.3239 21.4336 36.3239C21.0273 36.3239 20.6816 36.2526 20.3965 36.1101C20.115 35.9675 19.9012 35.7662 19.7551 35.506C19.609 35.2423 19.5359 34.9358 19.5359 34.5866C19.5359 34.305 19.5858 34.0556 19.6856 33.8382C19.7889 33.6173 19.9404 33.4319 20.14 33.2823C20.3431 33.129 20.5943 33.0132 20.8937 32.9348C21.193 32.8529 21.5387 32.8119 21.9307 32.8119H23.3366ZM25.865 36.3239C25.4267 36.3239 25.04 36.2526 24.705 36.1101C24.37 35.9675 24.0885 35.7679 23.8604 35.5114C23.6324 35.2512 23.4595 34.9447 23.3419 34.5919C23.2243 34.2391 23.1655 33.8525 23.1655 33.4319V33.1967C23.1655 32.7727 23.2261 32.386 23.3473 32.0368C23.472 31.684 23.6448 31.3793 23.8658 31.1227C24.0903 30.8661 24.3522 30.6683 24.6516 30.5293C24.9509 30.3868 25.277 30.3173 25.6298 30.3209C26.0147 30.3209 26.3532 30.3814 26.6454 30.5026C26.9412 30.6202 27.1889 30.793 27.3885 31.0211C27.588 31.2456 27.7377 31.5183 27.8375 31.839C27.9408 32.1597 27.9925 32.5196 27.9925 32.9188V33.5495H23.6947V32.7905H26.9983V32.6248C26.9983 32.3539 26.9537 32.1063 26.8646 31.8817C26.7755 31.6572 26.6312 31.4773 26.4316 31.3419C26.2321 31.2029 25.9648 31.1334 25.6298 31.1334C25.3839 31.1334 25.1665 31.1868 24.9776 31.2937C24.7888 31.4007 24.6284 31.5485 24.4966 31.7374C24.3683 31.9263 24.2703 32.1455 24.2025 32.3949C24.1348 32.6444 24.101 32.9117 24.101 33.1967V33.4319C24.101 33.7206 24.1348 33.9914 24.2025 34.2445C24.2703 34.4939 24.3754 34.7149 24.5179 34.9073C24.6605 35.0962 24.8422 35.2441 25.0632 35.351C25.2877 35.4579 25.555 35.5114 25.865 35.5114C26.2891 35.5114 26.6312 35.4472 26.8913 35.3189C27.1515 35.1871 27.3707 35.0606 27.5488 34.9394L27.8963 35.6664C27.8179 35.727 27.6914 35.8107 27.5168 35.9176C27.3457 36.021 27.123 36.1154 26.8486 36.2009C26.5742 36.2829 26.2463 36.3239 25.865 36.3239Z" fill="#242424"/>
<path d="M14.8265 28.0009V36.2116H13.8376V28.0009H14.8265ZM14.5913 33.1005L14.1797 33.0845C14.1833 32.6889 14.2421 32.3236 14.3561 31.9887C14.4701 31.6501 14.6305 31.3561 14.8372 31.1066C15.0439 30.8572 15.2898 30.6647 15.5749 30.5293C15.8635 30.3903 16.1825 30.3209 16.5317 30.3209C16.8168 30.3209 17.0734 30.3601 17.3015 30.4385C17.5296 30.5133 17.7238 30.6345 17.8841 30.802C18.0481 30.9694 18.1728 31.1868 18.2583 31.4541C18.3439 31.7178 18.3866 32.0403 18.3866 32.4216V36.2116H17.3924V32.4109C17.3924 32.108 17.3478 31.8657 17.2587 31.684C17.1696 31.4986 17.0396 31.365 16.8685 31.283C16.6974 31.1975 16.4872 31.1548 16.2377 31.1548C15.9918 31.1548 15.7673 31.2064 15.5642 31.3098C15.3646 31.4131 15.1918 31.5557 15.0457 31.7374C14.9031 31.9192 14.7909 32.1276 14.7089 32.3628C14.6305 32.5945 14.5913 32.8404 14.5913 33.1005Z" fill="#242424"/>
<path d="M59.1914 27.9898V27.1773H61.212V37.7401H59.1914V36.9275H60.2177V27.9898H59.1914Z" fill="#242424"/>
<path d="M2.33777 27.1773V27.9898H1.31678V36.9275H2.33777V37.7401H0.327859V27.1773H2.33777Z" fill="#242424"/>
<path d="M98.2474 20.6843H95.0229V3.32197H98.2474V10.2173C98.793 9.27477 100.132 8.67949 101.323 8.67949C104.2 8.67949 107.226 10.1429 107.226 14.6571V20.6843H103.977V14.6323C104.002 12.3008 102.662 11.4079 101.273 11.3831C99.7852 11.3831 98.2474 12.3256 98.2474 14.6075V20.6843Z" fill="#242424"/>
<path d="M87.5232 20.9323C83.9019 20.9323 81.248 18.4768 81.248 14.8307C81.248 11.1102 83.7531 8.62988 87.5232 8.62988C90.0283 8.62988 92.3351 9.67162 93.2032 12.6976L90.45 13.1689C89.8547 11.6559 88.5649 11.4327 87.5232 11.4327C85.5885 11.4327 84.4724 12.9209 84.4724 14.8307C84.4724 16.6662 85.663 18.1544 87.5232 18.1544C88.5153 18.1544 89.7555 17.9311 90.4748 16.1949L93.2776 16.815C92.4343 19.7914 89.9787 20.9323 87.5232 20.9323Z" fill="#242424"/>
<path d="M73.4502 20.8827C69.8041 20.8827 67.1998 18.4024 67.1998 14.7811C67.1998 11.1598 69.8289 8.67949 73.5247 8.67949C77.3444 8.67949 79.7255 11.2342 79.7255 15.1532C79.7255 15.4012 79.7255 15.674 79.7007 15.9469H70.4738C70.7715 17.6831 72.3589 18.1792 73.7231 18.1792C74.8144 18.1792 75.9306 17.9311 76.4514 16.9886L79.0558 17.9063C77.7908 20.2626 75.6081 20.8827 73.4502 20.8827ZM70.4738 13.5409H76.6251C76.3026 12.0527 74.864 11.3582 73.5495 11.3582C72.1109 11.3582 70.7963 12.1272 70.4738 13.5409Z" fill="#242424"/>
<path d="M63.6093 20.9075C60.2609 20.8827 58.4502 18.7496 58.4502 15.7236V11.2838H56.2675V8.87792H58.4502V3.32197H61.6002V8.87792H65.8168V11.2838H61.6002V15.7236C61.5754 17.1622 62.6172 18.204 64.031 18.204C64.527 18.204 65.0727 18.08 65.6432 17.7823L66.4865 20.1138C65.3704 20.6843 64.4278 20.9075 63.6093 20.9075Z" fill="#242424"/>
<path d="M45.6614 20.6843H42.4369V3.32197H45.6614V10.2173C46.2071 9.27477 47.5464 8.67949 48.737 8.67949C51.6142 8.67949 54.6402 10.1429 54.6402 14.6571V20.6843H51.3909V14.6323C51.4157 12.3008 50.0764 11.4079 48.6874 11.3831C47.1992 11.3831 45.6614 12.3256 45.6614 14.6075V20.6843Z" fill="#242424"/>
<path d="M34.3253 20.9323C31.2497 20.9323 28.5213 19.9154 28.3229 16.815L31.3985 16.8646C31.4729 18.0552 32.8867 18.3528 34.3997 18.3528C36.1111 18.3528 37.1777 17.8319 37.1777 17.1126C37.1777 16.5173 36.4088 16.1205 34.4245 16.0461C31.7705 15.8973 28.5461 15.5252 28.5461 12.4744C28.5461 9.5228 31.845 8.62988 34.2757 8.62988C36.9296 8.62988 39.9308 9.42359 40.1789 12.6232L37.2025 12.7224C36.9544 11.3334 35.0446 11.1846 34.3005 11.1846C32.9363 11.1846 31.7209 11.5567 31.7209 12.4496C31.7209 13.2433 33.1595 13.3921 34.7469 13.4913C37.5001 13.6898 40.6997 14.0618 40.4765 17.4103C40.1293 19.8162 37.1529 20.9323 34.3253 20.9323Z" fill="#242424"/>
<path d="M19.1385 20.9323C16.683 20.9075 14.2026 19.7914 14.2026 17.0134C14.2026 14.3098 16.7078 13.3921 19.3121 13.3921H23.0574C22.6358 12.0031 21.2964 11.3831 19.9322 11.3831C18.7416 11.3831 17.5015 11.8791 16.8566 12.7472L14.8227 10.9862C16.0877 9.02674 18.1215 8.48107 20.1554 8.48107C23.2062 8.48107 26.3563 10.3165 26.3563 13.665V18.1544L26.4803 20.6843H23.6031L23.3054 19.0225C22.4869 20.3123 20.7507 20.9323 19.1385 20.9323ZM19.4609 18.204C20.9243 18.204 22.859 17.7327 23.1318 15.7236H19.2129C18.3448 15.7236 17.4023 16.1701 17.4023 16.9886C17.4023 17.9063 18.6672 18.204 19.4609 18.204Z" fill="#242424"/>
<path d="M3.22443 20.6843H0V3.32197H3.22443V10.2173C3.77011 9.27477 5.10949 8.67949 6.30005 8.67949C9.17723 8.67949 12.2032 10.1429 12.2032 14.6571V20.6843H8.95401V14.6323C8.97881 12.3008 7.63943 11.4079 6.25044 11.3831C4.76224 11.3831 3.22443 12.3256 3.22443 14.6075V20.6843Z" fill="#242424"/>
<path d="M105.725 2.74741C106.307 3.10111 106.494 3.95322 106.214 4.4042C105.825 5.1587 105.684 5.19707 104.863 6.42153C104.819 6.48694 104.838 6.57566 104.905 6.61727C104.973 6.6595 105.063 6.63628 105.101 6.56636C105.814 5.27819 105.733 5.3924 106.334 4.47913C106.682 3.91981 107.615 3.90003 107.879 4.06344C108.916 4.70546 108.518 4.50895 109.68 5.28405C109.734 5.32038 109.807 5.31527 109.856 5.27107C109.928 5.20534 109.913 5.08787 109.827 5.04117C108.652 4.39862 108.934 4.65031 107.939 3.96713C107.426 3.61482 107.368 2.77835 107.55 2.45995C108.163 1.38228 108.068 1.6462 108.89 0.478653C108.936 0.413286 108.918 0.322662 108.85 0.280423C108.783 0.238855 108.695 0.260793 108.656 0.328883C107.925 1.59153 108.147 1.32156 107.423 2.38112C107.105 2.84611 106.193 2.88051 105.796 2.63321C104.707 2.00364 105.065 2.16625 103.949 1.37999C103.877 1.32947 103.777 1.34942 103.731 1.4239C103.685 1.49719 103.71 1.59402 103.784 1.63729C104.963 2.3201 104.737 2.1468 105.725 2.74741Z" fill="#242424"/>
<path fill-rule="evenodd" clip-rule="evenodd" d="M106.128 4.35556L106.13 4.35216C106.252 4.15675 106.278 3.86124 106.198 3.56497C106.118 3.27057 105.939 2.9927 105.674 2.83154C105.126 2.49851 104.955 2.40533 104.71 2.27184C104.512 2.16409 104.266 2.03008 103.735 1.7225C103.613 1.65157 103.572 1.49271 103.647 1.37187C103.724 1.24904 103.888 1.2166 104.006 1.2995C104.409 1.58365 104.62 1.74396 104.775 1.86157C105.052 2.07207 105.15 2.1458 105.845 2.54797L105.847 2.54878L105.848 2.54962C106.022 2.65767 106.324 2.71073 106.628 2.67643C106.933 2.64207 107.206 2.52395 107.342 2.32555C107.817 1.63055 107.881 1.51392 108.078 1.15314C108.181 0.965964 108.32 0.713068 108.57 0.279587C108.638 0.163292 108.788 0.125899 108.902 0.196835C109.017 0.268903 109.049 0.423602 108.971 0.535318C108.683 0.944408 108.507 1.1779 108.376 1.3536C108.128 1.68298 108.033 1.8093 107.635 2.50869C107.56 2.63974 107.527 2.90173 107.581 3.18238C107.633 3.45989 107.767 3.72942 107.995 3.88596C108.619 4.31433 108.731 4.36934 109.026 4.51383C109.199 4.5987 109.435 4.71442 109.874 4.95477C110.018 5.03341 110.045 5.23175 109.922 5.34372C109.84 5.41891 109.717 5.4271 109.625 5.36595C109.106 5.01939 108.897 4.86608 108.733 4.74599C108.713 4.7314 108.694 4.71729 108.675 4.70339C108.502 4.57734 108.344 4.46739 107.827 4.14715C107.78 4.11793 107.69 4.09062 107.566 4.07882C107.445 4.06729 107.302 4.07152 107.155 4.09724C106.859 4.14922 106.571 4.2849 106.418 4.53117L106.416 4.53327C105.91 5.30302 105.891 5.3377 105.465 6.11012C105.388 6.25069 105.297 6.4157 105.187 6.61403C105.121 6.7333 104.969 6.77287 104.853 6.70087C104.739 6.62993 104.706 6.47854 104.781 6.36671C105.116 5.86662 105.339 5.56305 105.511 5.32936C105.55 5.27604 105.586 5.22635 105.621 5.1788C105.805 4.92498 105.935 4.73103 106.126 4.35911L106.128 4.35556ZM108.257 4.30082C108.156 4.23635 108.034 4.15923 107.879 4.06344C107.615 3.90003 106.682 3.91981 106.334 4.47913C105.826 5.25208 105.805 5.28903 105.379 6.0631C105.301 6.20363 105.211 6.36844 105.101 6.56636C105.063 6.63628 104.973 6.6595 104.905 6.61727C104.838 6.57566 104.819 6.48694 104.863 6.42153C105.197 5.92331 105.418 5.62146 105.59 5.38783C105.84 5.04728 105.983 4.8517 106.214 4.4042C106.494 3.95322 106.307 3.10111 105.725 2.74741C105.177 2.41425 105.003 2.31922 104.755 2.1841C104.556 2.07564 104.309 1.94134 103.784 1.63729C103.71 1.59402 103.685 1.49719 103.731 1.4239C103.777 1.34942 103.877 1.32947 103.949 1.37999C104.347 1.6603 104.557 1.82002 104.713 1.93802C104.994 2.151 105.095 2.22809 105.796 2.63321C106.193 2.88051 107.105 2.84611 107.423 2.38112C107.901 1.68216 107.967 1.56177 108.166 1.19832C108.269 1.01081 108.407 0.758604 108.656 0.328883C108.695 0.260793 108.783 0.238855 108.85 0.280423C108.918 0.322662 108.936 0.413286 108.89 0.478653C108.606 0.882753 108.431 1.11538 108.299 1.29149C108.049 1.62422 107.951 1.75527 107.55 2.45995C107.368 2.77835 107.426 3.61482 107.939 3.96713C108.087 4.06849 108.206 4.14928 108.306 4.21546C108.362 4.25226 108.412 4.28454 108.458 4.31333C108.679 4.45352 108.796 4.51101 108.986 4.60434C109.16 4.68971 109.395 4.80507 109.827 5.04117C109.913 5.08787 109.928 5.20534 109.856 5.27107C109.807 5.31527 109.734 5.32038 109.68 5.28405C109.162 4.93861 108.954 4.78615 108.791 4.66645C108.671 4.57854 108.575 4.50829 108.398 4.39223C108.356 4.36464 108.31 4.33445 108.257 4.30082Z" fill="#242424"/>
</svg>
