<svg width="110" height="39" viewBox="0 0 110 39" fill="none" xmlns="http://www.w3.org/2000/svg">
<path d="M44.5209 27.84V36.0507H43.5266V27.84H44.5209ZM48.0542 30.2669L45.5312 32.9664L44.1199 34.431L44.0398 33.378L45.0501 32.1699L46.8462 30.2669H48.0542ZM47.1509 36.0507L45.0875 33.2924L45.6007 32.4104L48.3162 36.0507H47.1509Z" fill="#EEEBE2"/>
<path d="M41.3672 32.6022V33.3905H40.568C40.1958 33.3905 39.8856 33.4306 39.6375 33.5109C39.3966 33.5839 39.2142 33.6933 39.0901 33.8393C38.9733 33.9853 38.9149 34.1714 38.9149 34.3976C38.9149 34.6385 38.9843 34.8319 39.123 34.9779C39.2616 35.1165 39.4477 35.2187 39.6813 35.2844C39.9148 35.3428 40.1776 35.372 40.4695 35.372C40.8782 35.372 41.2358 35.3245 41.5424 35.2297C41.8562 35.1348 42.1335 35.029 42.3744 34.9122V35.7551C42.2284 35.8354 42.0606 35.9084 41.8708 35.9741C41.681 36.0325 41.4657 36.0763 41.2249 36.1055C40.984 36.142 40.714 36.1602 40.4148 36.1602C39.8601 36.1602 39.4003 36.0872 39.0354 35.9413C38.6704 35.788 38.3968 35.5836 38.2143 35.3282C38.0391 35.0654 37.9516 34.7735 37.9516 34.4524C37.9516 34.1604 38.0099 33.9232 38.1267 33.7408C38.2508 33.551 38.4114 33.4014 38.6084 33.2919C38.8055 33.1752 39.0208 33.0839 39.2543 33.0182V32.9635C38.9259 32.8613 38.6595 32.7044 38.4551 32.4928C38.2581 32.2738 38.1596 31.9855 38.1596 31.6279C38.1596 31.2995 38.2544 31.0185 38.4442 30.7849C38.6413 30.5514 38.9076 30.3762 39.2434 30.2594C39.5864 30.1354 39.9769 30.0733 40.4148 30.0733C40.6994 30.0733 40.9549 30.0916 41.1811 30.1281C41.4074 30.1573 41.619 30.2047 41.8161 30.2704C42.0131 30.3288 42.2065 30.4018 42.3963 30.4893L42.035 31.2557C41.7942 31.1462 41.546 31.055 41.2906 30.982C41.0424 30.909 40.7469 30.8725 40.4038 30.8725C39.9659 30.8725 39.6338 30.9418 39.4076 31.0805C39.1886 31.2192 39.0792 31.4272 39.0792 31.7045C39.0792 32.0257 39.2288 32.2556 39.528 32.3942C39.8345 32.5329 40.2433 32.6022 40.7542 32.6022H41.3672Z" fill="#EEEBE2"/>
<path d="M37.0746 30.2669V31.0259H33.9474V30.2669H37.0746ZM35.0058 28.861H35.9948V34.6181C35.9948 34.8141 36.0251 34.962 36.0856 35.0618C36.1462 35.1616 36.2246 35.2275 36.3208 35.2596C36.4171 35.2917 36.5204 35.3077 36.6309 35.3077C36.7128 35.3077 36.7984 35.3006 36.8875 35.2863C36.9801 35.2685 37.0496 35.2542 37.0959 35.2436L37.1013 36.0507C37.0229 36.0757 36.9195 36.0988 36.7912 36.1202C36.6665 36.1452 36.5151 36.1576 36.3369 36.1576C36.0945 36.1576 35.8718 36.1095 35.6687 36.0133C35.4656 35.9171 35.3034 35.7567 35.1822 35.5322C35.0646 35.3041 35.0058 34.9977 35.0058 34.6128V28.861Z" fill="#EEEBE2"/>
<path d="M30.737 27.6758C30.8976 27.6758 31.0472 27.694 31.1859 27.7305C31.3245 27.7597 31.4304 27.7999 31.5033 27.851V28.5845C31.4449 28.5553 31.361 28.5297 31.2515 28.5078C31.1421 28.4786 31.0362 28.464 30.9341 28.464C30.7078 28.464 30.5363 28.5334 30.4195 28.672C30.31 28.8034 30.2553 29.0844 30.2553 29.515V36.8499C30.2553 37.3243 30.1896 37.6929 30.0583 37.9556C29.9269 38.2257 29.7517 38.4118 29.5328 38.5139C29.3138 38.6234 29.073 38.6782 28.8102 38.6782C28.6497 38.6782 28.5 38.6599 28.3614 38.6234C28.23 38.5942 28.1242 38.5541 28.0439 38.503V37.7695C28.1023 37.7987 28.1899 37.8242 28.3066 37.8461C28.4161 37.8753 28.5183 37.8899 28.6132 37.8899C28.8394 37.8899 29.0073 37.8206 29.1168 37.6819C29.2335 37.5506 29.2919 37.2696 29.2919 36.839V29.5041C29.2919 29.0224 29.3576 28.6501 29.489 28.3874C29.6203 28.1247 29.7955 27.9422 30.0145 27.84C30.2407 27.7305 30.4816 27.6758 30.737 27.6758Z" fill="#EEEBE2"/>
<path d="M23.1174 35.0725V32.202C23.1174 31.9454 23.0729 31.7262 22.9838 31.5445C22.8982 31.3591 22.7699 31.2184 22.5989 31.1222C22.4278 31.0224 22.2194 30.9725 21.9735 30.9725C21.7098 30.9725 21.4799 31.0188 21.2839 31.1115C21.0879 31.2041 20.9364 31.3271 20.8295 31.4803C20.7226 31.6335 20.6692 31.8028 20.6692 31.9881L19.6856 31.8919C19.6856 31.6425 19.7408 31.4126 19.8513 31.2023C19.9618 30.9921 20.1168 30.8086 20.3164 30.6518C20.5195 30.495 20.76 30.3738 21.038 30.2883C21.3195 30.2027 21.6314 30.16 21.9735 30.16C22.394 30.16 22.761 30.2366 23.0746 30.3898C23.3918 30.5431 23.6377 30.7711 23.8123 31.0741C23.9905 31.377 24.0796 31.7565 24.0796 32.2126V34.8854L23.1174 35.0725ZM23.3366 32.651V33.3994H21.9414C21.6314 33.3994 21.3712 33.4492 21.1609 33.549C20.9507 33.6452 20.7921 33.7735 20.6852 33.9339C20.5783 34.0907 20.5248 34.2618 20.5248 34.4471C20.5248 34.6181 20.564 34.7732 20.6424 34.9121C20.7244 35.0476 20.8456 35.1562 21.0059 35.2382C21.1699 35.3166 21.3766 35.3558 21.626 35.3558C21.8184 35.3558 22.0144 35.3202 22.214 35.2489C22.4171 35.1741 22.6025 35.0796 22.7699 34.9656C22.941 34.848 23.0782 34.725 23.1816 34.5967C23.2885 34.4685 23.3437 34.3491 23.3473 34.2386L23.8604 35.0084C23.7642 35.183 23.611 35.3594 23.4007 35.5376C23.194 35.7157 22.9268 35.8654 22.5989 35.9866C22.2746 36.1042 21.8862 36.163 21.4336 36.163C21.0273 36.163 20.6816 36.0917 20.3965 35.9492C20.115 35.8066 19.9012 35.6053 19.7551 35.3451C19.609 35.0814 19.5359 34.7749 19.5359 34.4257C19.5359 34.1442 19.5858 33.8947 19.6856 33.6773C19.7889 33.4564 19.9404 33.2711 20.14 33.1214C20.3431 32.9681 20.5943 32.8523 20.8937 32.7739C21.193 32.692 21.5387 32.651 21.9307 32.651H23.3366ZM25.865 36.163C25.4267 36.163 25.04 36.0917 24.705 35.9492C24.37 35.8066 24.0885 35.6071 23.8604 35.3505C23.6324 35.0903 23.4595 34.7838 23.3419 34.431C23.2243 34.0782 23.1655 33.6916 23.1655 33.2711V33.0359C23.1655 32.6118 23.2261 32.2251 23.3473 31.8759C23.472 31.5231 23.6448 31.2184 23.8658 30.9618C24.0903 30.7052 24.3522 30.5074 24.6516 30.3684C24.9509 30.2259 25.277 30.1564 25.6298 30.16C26.0147 30.16 26.3532 30.2206 26.6454 30.3417C26.9412 30.4593 27.1889 30.6322 27.3885 30.8602C27.588 31.0847 27.7377 31.3574 27.8375 31.6781C27.9408 31.9988 27.9925 32.3588 27.9925 32.7579V33.3887H23.6947V32.6296H26.9983V32.4639C26.9983 32.193 26.9537 31.9454 26.8646 31.7209C26.7755 31.4963 26.6312 31.3164 26.4316 31.181C26.2321 31.042 25.9648 30.9725 25.6298 30.9725C25.3839 30.9725 25.1665 31.0259 24.9776 31.1329C24.7888 31.2398 24.6284 31.3877 24.4966 31.5765C24.3683 31.7654 24.2703 31.9846 24.2025 32.234C24.1348 32.4835 24.101 32.7508 24.101 33.0359V33.2711C24.101 33.5597 24.1348 33.8306 24.2025 34.0836C24.2703 34.333 24.3754 34.554 24.5179 34.7464C24.6605 34.9353 24.8422 35.0832 25.0632 35.1901C25.2877 35.297 25.555 35.3505 25.865 35.3505C26.2891 35.3505 26.6312 35.2863 26.8913 35.158C27.1515 35.0262 27.3707 34.8997 27.5488 34.7785L27.8963 35.5055C27.8179 35.5661 27.6914 35.6498 27.5168 35.7567C27.3457 35.8601 27.123 35.9545 26.8486 36.04C26.5742 36.122 26.2463 36.163 25.865 36.163Z" fill="#EEEBE2"/>
<path d="M14.8265 27.84V36.0507H13.8376V27.84H14.8265ZM14.5913 32.9396L14.1797 32.9236C14.1833 32.528 14.2421 32.1628 14.3561 31.8278C14.4701 31.4892 14.6305 31.1952 14.8372 30.9458C15.0439 30.6963 15.2898 30.5039 15.5749 30.3684C15.8635 30.2295 16.1825 30.16 16.5317 30.16C16.8168 30.16 17.0734 30.1992 17.3015 30.2776C17.5296 30.3524 17.7238 30.4736 17.8841 30.6411C18.0481 30.8086 18.1728 31.0259 18.2583 31.2932C18.3439 31.5569 18.3866 31.8794 18.3866 32.2608V36.0507H17.3924V32.2501C17.3924 31.9471 17.3478 31.7048 17.2587 31.5231C17.1696 31.3378 17.0396 31.2041 16.8685 31.1222C16.6974 31.0366 16.4872 30.9939 16.2377 30.9939C15.9918 30.9939 15.7673 31.0455 15.5642 31.1489C15.3646 31.2522 15.1918 31.3948 15.0457 31.5765C14.9031 31.7583 14.7909 31.9667 14.7089 32.202C14.6305 32.4336 14.5913 32.6795 14.5913 32.9396Z" fill="#EEEBE2"/>
<path d="M59.1914 27.8289V27.0164H61.212V37.5792H59.1914V36.7666H60.2177V27.8289H59.1914Z" fill="#EEEBE2"/>
<path d="M2.33777 27.0164V27.8289H1.31678V36.7666H2.33777V37.5792H0.327859V27.0164H2.33777Z" fill="#EEEBE2"/>
<path d="M98.2474 20.5234H95.0229V3.16108H98.2474V10.0564C98.793 9.11388 100.132 8.5186 101.323 8.5186C104.2 8.5186 107.226 9.982 107.226 14.4962V20.5234H103.977V14.4714C104.002 12.1399 102.662 11.247 101.273 11.2222C99.7852 11.2222 98.2474 12.1647 98.2474 14.4466V20.5234Z" fill="#EEEBE2"/>
<path d="M87.5232 20.7714C83.9019 20.7714 81.248 18.3159 81.248 14.6698C81.248 10.9493 83.7531 8.469 87.5232 8.469C90.0283 8.469 92.3351 9.51073 93.2032 12.5367L90.45 13.008C89.8547 11.495 88.5649 11.2718 87.5232 11.2718C85.5885 11.2718 84.4724 12.76 84.4724 14.6698C84.4724 16.5053 85.663 17.9935 87.5232 17.9935C88.5153 17.9935 89.7555 17.7702 90.4748 16.034L93.2776 16.6541C92.4343 19.6305 89.9787 20.7714 87.5232 20.7714Z" fill="#EEEBE2"/>
<path d="M73.4502 20.7218C69.8041 20.7218 67.1998 18.2415 67.1998 14.6202C67.1998 10.9989 69.8289 8.5186 73.5247 8.5186C77.3444 8.5186 79.7255 11.0733 79.7255 14.9923C79.7255 15.2403 79.7255 15.5131 79.7007 15.786H70.4738C70.7715 17.5222 72.3589 18.0183 73.7231 18.0183C74.8144 18.0183 75.9306 17.7702 76.4514 16.8277L79.0558 17.7454C77.7908 20.1018 75.6081 20.7218 73.4502 20.7218ZM70.4738 13.3801H76.6251C76.3026 11.8919 74.864 11.1974 73.5495 11.1974C72.1109 11.1974 70.7963 11.9663 70.4738 13.3801Z" fill="#EEEBE2"/>
<path d="M63.6093 20.7466C60.2609 20.7218 58.4502 18.5888 58.4502 15.5628V11.123H56.2675V8.71703H58.4502V3.16108H61.6002V8.71703H65.8168V11.123H61.6002V15.5628C61.5754 17.0013 62.6172 18.0431 64.031 18.0431C64.527 18.0431 65.0727 17.9191 65.6432 17.6214L66.4865 19.9529C65.3704 20.5234 64.4278 20.7466 63.6093 20.7466Z" fill="#EEEBE2"/>
<path d="M45.6614 20.5234H42.4369V3.16108H45.6614V10.0564C46.2071 9.11388 47.5464 8.5186 48.737 8.5186C51.6142 8.5186 54.6402 9.982 54.6402 14.4962V20.5234H51.3909V14.4714C51.4157 12.1399 50.0764 11.247 48.6874 11.2222C47.1992 11.2222 45.6614 12.1647 45.6614 14.4466V20.5234Z" fill="#EEEBE2"/>
<path d="M34.3253 20.7714C31.2497 20.7714 28.5213 19.7545 28.3229 16.6541L31.3985 16.7037C31.4729 17.8943 32.8867 18.1919 34.3997 18.1919C36.1111 18.1919 37.1777 17.671 37.1777 16.9517C37.1777 16.3565 36.4088 15.9596 34.4245 15.8852C31.7705 15.7364 28.5461 15.3643 28.5461 12.3135C28.5461 9.36191 31.845 8.469 34.2757 8.469C36.9296 8.469 39.9308 9.2627 40.1789 12.4623L37.2025 12.5615C36.9544 11.1726 35.0446 11.0237 34.3005 11.0237C32.9363 11.0237 31.7209 11.3958 31.7209 12.2887C31.7209 13.0824 33.1595 13.2312 34.7469 13.3304C37.5001 13.5289 40.6997 13.9009 40.4765 17.2494C40.1293 19.6553 37.1529 20.7714 34.3253 20.7714Z" fill="#EEEBE2"/>
<path d="M19.1385 20.7715C16.683 20.7466 14.2026 19.6305 14.2026 16.8525C14.2026 14.149 16.7078 13.2312 19.3121 13.2312H23.0574C22.6358 11.8422 21.2964 11.2222 19.9322 11.2222C18.7416 11.2222 17.5015 11.7182 16.8566 12.5863L14.8227 10.8253C16.0877 8.86585 18.1215 8.32018 20.1554 8.32018C23.2062 8.32018 26.3563 10.1556 26.3563 13.5041V17.9935L26.4803 20.5234H23.6031L23.3054 18.8616C22.4869 20.1514 20.7507 20.7715 19.1385 20.7715ZM19.4609 18.0431C20.9243 18.0431 22.859 17.5718 23.1318 15.5628H19.2129C18.3448 15.5628 17.4023 16.0092 17.4023 16.8277C17.4023 17.7454 18.6672 18.0431 19.4609 18.0431Z" fill="#EEEBE2"/>
<path d="M3.22443 20.5234H0V3.16108H3.22443V10.0564C3.77011 9.11388 5.10949 8.5186 6.30005 8.5186C9.17723 8.5186 12.2032 9.982 12.2032 14.4962V20.5234H8.95401V14.4714C8.97881 12.1399 7.63943 11.247 6.25044 11.2222C4.76224 11.2222 3.22443 12.1647 3.22443 14.4466V20.5234Z" fill="#EEEBE2"/>
<path d="M105.725 2.58652C106.307 2.94022 106.494 3.79234 106.214 4.24331C105.825 4.99781 105.684 5.03618 104.863 6.26064C104.819 6.32606 104.838 6.41477 104.905 6.45638C104.973 6.49861 105.063 6.47539 105.101 6.40547C105.814 5.11731 105.733 5.23151 106.334 4.31825C106.682 3.75892 107.615 3.73914 107.879 3.90256C108.916 4.54457 108.518 4.34807 109.68 5.12316C109.734 5.1595 109.807 5.15438 109.856 5.11018C109.928 5.04445 109.913 4.92698 109.827 4.88028C108.652 4.23773 108.934 4.48942 107.939 3.80624C107.426 3.45393 107.368 2.61747 107.55 2.29906C108.163 1.22139 108.068 1.48531 108.89 0.317764C108.936 0.252397 108.918 0.161773 108.85 0.119535C108.783 0.0779661 108.695 0.099904 108.656 0.167995C107.925 1.43065 108.147 1.16067 107.423 2.22023C107.105 2.68522 106.193 2.71962 105.796 2.47232C104.707 1.84275 105.065 2.00537 103.949 1.2191C103.877 1.16858 103.777 1.18854 103.731 1.26301C103.685 1.3363 103.71 1.43313 103.784 1.4764C104.963 2.15921 104.737 1.98591 105.725 2.58652Z" fill="#EEEBE2"/>
<path fill-rule="evenodd" clip-rule="evenodd" d="M106.128 4.19467L106.13 4.19128C106.252 3.99586 106.278 3.70035 106.198 3.40408C106.118 3.10968 105.939 2.83181 105.674 2.67065C105.126 2.33762 104.955 2.24444 104.71 2.11095C104.512 2.0032 104.266 1.8692 103.735 1.56161C103.613 1.49068 103.572 1.33182 103.647 1.21098C103.724 1.08815 103.888 1.05572 104.006 1.13861C104.409 1.42276 104.62 1.58307 104.775 1.70068C105.052 1.91118 105.15 1.98491 105.845 2.38708L105.847 2.38789L105.848 2.38874C106.022 2.49678 106.324 2.54985 106.628 2.51554C106.933 2.48118 107.206 2.36306 107.342 2.16466C107.817 1.46966 107.881 1.35303 108.078 0.992254C108.181 0.805075 108.32 0.552179 108.57 0.118698C108.638 0.00240338 108.788 -0.0349897 108.902 0.0359462C109.017 0.108015 109.049 0.262713 108.971 0.374429C108.683 0.78352 108.507 1.01701 108.376 1.19272C108.128 1.52209 108.033 1.64841 107.635 2.3478C107.56 2.47885 107.527 2.74084 107.581 3.02149C107.633 3.299 107.767 3.56853 107.995 3.72508C108.619 4.15344 108.731 4.20845 109.026 4.35295C109.199 4.43781 109.435 4.55354 109.874 4.79389C110.018 4.87252 110.045 5.07087 109.922 5.18283C109.84 5.25802 109.717 5.26622 109.625 5.20506C109.106 4.8585 108.897 4.7052 108.733 4.5851C108.713 4.57051 108.694 4.55641 108.675 4.54251C108.502 4.41645 108.344 4.3065 107.827 3.98626C107.78 3.95704 107.69 3.92973 107.566 3.91793C107.445 3.9064 107.302 3.91064 107.155 3.93635C106.859 3.98834 106.571 4.12401 106.418 4.37028L106.416 4.37238C105.91 5.14213 105.891 5.17681 105.465 5.94923C105.388 6.0898 105.297 6.25482 105.187 6.45314C105.121 6.57241 104.969 6.61198 104.853 6.53998C104.739 6.46904 104.706 6.31765 104.781 6.20583C105.116 5.70573 105.339 5.40217 105.511 5.16847C105.55 5.11515 105.586 5.06546 105.621 5.01791C105.805 4.76409 105.935 4.57014 106.126 4.19822L106.128 4.19467ZM108.257 4.13993C108.156 4.07547 108.034 3.99834 107.879 3.90256C107.615 3.73914 106.682 3.75892 106.334 4.31825C105.826 5.09119 105.805 5.12815 105.379 5.90222C105.301 6.04274 105.211 6.20755 105.101 6.40547C105.063 6.47539 104.973 6.49861 104.905 6.45638C104.838 6.41477 104.819 6.32606 104.863 6.26064C105.197 5.76242 105.418 5.46057 105.59 5.22694C105.84 4.8864 105.983 4.69081 106.214 4.24331C106.494 3.79234 106.307 2.94022 105.725 2.58652C105.177 2.25336 105.003 2.15833 104.755 2.02322C104.556 1.91475 104.309 1.78045 103.784 1.4764C103.71 1.43313 103.685 1.3363 103.731 1.26301C103.777 1.18854 103.877 1.16858 103.949 1.2191C104.347 1.49942 104.557 1.65913 104.713 1.77713C104.994 1.99011 105.095 2.0672 105.796 2.47232C106.193 2.71962 107.105 2.68522 107.423 2.22023C107.901 1.52127 107.967 1.40088 108.166 1.03743C108.269 0.84992 108.407 0.597715 108.656 0.167995C108.695 0.099904 108.783 0.0779661 108.85 0.119535C108.918 0.161773 108.936 0.252397 108.89 0.317764C108.606 0.721864 108.431 0.954487 108.299 1.1306C108.049 1.46333 107.951 1.59438 107.55 2.29906C107.368 2.61747 107.426 3.45393 107.939 3.80624C108.087 3.90761 108.206 3.98839 108.306 4.05457C108.362 4.09137 108.412 4.12365 108.458 4.15244C108.679 4.29263 108.796 4.35012 108.986 4.44345C109.16 4.52882 109.395 4.64418 109.827 4.88028C109.913 4.92698 109.928 5.04445 109.856 5.11018C109.807 5.15438 109.734 5.1595 109.68 5.12316C109.162 4.77772 108.954 4.62527 108.791 4.50556C108.671 4.41765 108.575 4.3474 108.398 4.23135C108.356 4.20375 108.31 4.17356 108.257 4.13993Z" fill="#EEEBE2"/>
</svg>
