<svg width="287" height="55" viewBox="0 0 287 55" fill="none" xmlns="http://www.w3.org/2000/svg">
<path d="M255.735 53.9688H247.342V8.77508H255.735V26.7234C257.155 24.2701 260.642 22.7206 263.741 22.7206C271.23 22.7206 279.107 26.5297 279.107 38.2801V53.9688H270.649V38.2155C270.714 32.1467 267.227 29.8224 263.612 29.7579C259.738 29.7579 255.735 32.2112 255.735 38.151V53.9688Z" fill="#353535"/>
<path d="M227.82 54.6144C218.394 54.6144 211.486 48.2227 211.486 38.732C211.486 29.0477 218.007 22.5914 227.82 22.5914C234.341 22.5914 240.346 25.3031 242.605 33.1797L235.439 34.4063C233.889 30.468 230.532 29.887 227.82 29.887C222.785 29.887 219.879 33.7607 219.879 38.732C219.879 43.5096 222.978 47.3834 227.82 47.3834C230.403 47.3834 233.631 46.8023 235.503 42.283L242.799 43.897C240.604 51.6445 234.212 54.6144 227.82 54.6144Z" fill="#353535"/>
<path d="M191.189 54.4852C181.698 54.4852 174.919 48.029 174.919 38.6029C174.919 29.1768 181.763 22.7206 191.383 22.7206C201.325 22.7206 207.523 29.3705 207.523 39.5713C207.523 40.217 207.523 40.9271 207.459 41.6373H183.441C184.216 46.1567 188.348 47.4479 191.899 47.4479C194.74 47.4479 197.645 46.8023 199.001 44.3489L205.78 46.7378C202.487 52.8712 196.806 54.4852 191.189 54.4852ZM183.441 35.3748H199.453C198.614 31.501 194.869 29.6933 191.447 29.6933C187.702 29.6933 184.281 31.6947 183.441 35.3748Z" fill="#353535"/>
<path d="M165.573 54.5498C156.857 54.4852 152.144 48.9329 152.144 41.0563V29.4996H146.463V23.2371H152.144V8.77508H160.344V23.2371H171.319V29.4996H160.344V41.0563C160.279 44.8009 162.991 47.5125 166.671 47.5125C167.962 47.5125 169.382 47.1897 170.867 46.4149L173.062 52.4838C170.157 53.9688 167.704 54.5498 165.573 54.5498Z" fill="#353535"/>
<path d="M118.855 53.9688H110.462V8.77508H118.855V26.7234C120.276 24.2701 123.762 22.7206 126.861 22.7206C134.35 22.7206 142.227 26.5297 142.227 38.2801V53.9688H133.769V38.2155C133.834 32.1467 130.347 29.8224 126.732 29.7579C122.858 29.7579 118.855 32.2112 118.855 38.151V53.9688Z" fill="#353535"/>
<path d="M89.3477 54.6144C81.342 54.6144 74.2401 51.9673 73.7236 43.897L81.7294 44.0261C81.923 47.1251 85.6031 47.8999 89.5414 47.8999C93.9962 47.8999 96.7724 46.5441 96.7724 44.6718C96.7724 43.1223 94.771 42.0893 89.606 41.8956C82.6978 41.5082 74.3047 40.5398 74.3047 32.5986C74.3047 24.9157 82.8915 22.5914 89.2186 22.5914C96.1268 22.5914 103.939 24.6574 104.584 32.986L96.837 33.2442C96.1913 29.6287 91.22 29.2414 89.2832 29.2414C85.7322 29.2414 82.5687 30.2098 82.5687 32.534C82.5687 34.6 86.3133 34.9874 90.4453 35.2457C97.6117 35.7622 105.94 36.7306 105.359 45.4465C104.455 51.7091 96.7078 54.6144 89.3477 54.6144Z" fill="#353535"/>
<path d="M49.8169 54.6144C43.4252 54.5498 36.969 51.6445 36.969 44.4135C36.969 37.3762 43.4898 34.9874 50.2688 34.9874H60.0178C58.9202 31.3719 55.4338 29.7579 51.8829 29.7579C48.7839 29.7579 45.5558 31.0491 43.8772 33.3088L38.583 28.7249C41.8757 23.6244 47.1698 22.2041 52.464 22.2041C60.4051 22.2041 68.6046 26.9817 68.6046 35.6976V47.3834L68.9274 53.9688H61.4381L60.6634 49.6431C58.5328 53.0003 54.0135 54.6144 49.8169 54.6144ZM50.6562 47.5125C54.4654 47.5125 59.5013 46.2858 60.2114 41.0563H50.0106C47.7509 41.0563 45.2975 42.2184 45.2975 44.349C45.2975 46.7378 48.5902 47.5125 50.6562 47.5125Z" fill="#353535"/>
<path d="M8.39308 53.9688H0V8.77508H8.39308V26.7234C9.81345 24.2701 13.2998 22.7206 16.3988 22.7206C23.8881 22.7206 31.7647 26.5297 31.7647 38.2801V53.9688H23.307V38.2155C23.3716 32.1467 19.8852 29.8224 16.2697 29.7579C12.3959 29.7579 8.39308 32.2112 8.39308 38.151V53.9688Z" fill="#353535"/>
<path d="M275.199 7.27951C276.713 8.20019 277.202 10.4182 276.471 11.5921C275.459 13.556 275.092 13.6559 272.956 16.8432C272.842 17.0134 272.892 17.2443 273.066 17.3527C273.242 17.4626 273.475 17.4021 273.576 17.2201C275.431 13.8671 275.221 14.1643 276.785 11.7871C277.691 10.3313 280.119 10.2798 280.806 10.7051C283.504 12.3763 282.471 11.8648 285.494 13.8823C285.636 13.9769 285.826 13.9636 285.951 13.8485C286.138 13.6774 286.099 13.3717 285.877 13.2501C282.818 11.5776 283.552 12.2327 280.962 10.4544C279.627 9.53737 279.476 7.36006 279.948 6.53126C281.546 3.72611 281.299 4.41309 283.438 1.37401C283.557 1.20386 283.509 0.967965 283.333 0.858021C283.159 0.749819 282.93 0.806922 282.827 0.98416C280.926 4.27081 281.504 3.56807 279.619 6.32606C278.791 7.53642 276.418 7.62598 275.384 6.98226C272.549 5.34349 273.481 5.76678 270.576 3.72016C270.389 3.58865 270.129 3.6406 270.008 3.83445C269.89 4.02523 269.953 4.27728 270.148 4.3899C273.217 6.16724 272.628 5.71615 275.199 7.27951Z" fill="#353535"/>
<path fill-rule="evenodd" clip-rule="evenodd" d="M276.248 11.4655L276.254 11.4566C276.57 10.948 276.637 10.1788 276.429 9.40759C276.223 8.64128 275.756 7.918 275.066 7.4985C273.64 6.63165 273.195 6.38909 272.557 6.04162C272.042 5.76116 271.402 5.41234 270.019 4.6117C269.701 4.42707 269.595 4.01358 269.791 3.69902C269.99 3.37931 270.417 3.29487 270.723 3.51064C271.773 4.25028 272.323 4.66756 272.727 4.97371C273.449 5.52162 273.702 5.71355 275.512 6.76039L275.516 6.76248L275.52 6.76469C275.971 7.04594 276.759 7.18405 277.55 7.09477C278.343 7.00531 279.054 6.69786 279.407 6.18143C280.644 4.37237 280.81 4.06877 281.325 3.12968C281.592 2.64246 281.953 1.98418 282.605 0.855842C282.78 0.553131 283.171 0.455798 283.468 0.640442C283.769 0.828034 283.852 1.23071 283.647 1.5215C282.898 2.58635 282.442 3.19412 282.099 3.65148C281.455 4.50884 281.208 4.83765 280.171 6.65813C279.977 6.99924 279.89 7.68121 280.029 8.41172C280.167 9.13408 280.514 9.83566 281.107 10.2431C282.731 11.3582 283.023 11.5013 283.79 11.8775C284.241 12.0984 284.855 12.3996 286 13.0252C286.374 13.2299 286.443 13.7462 286.124 14.0376C285.91 14.2334 285.59 14.2547 285.352 14.0955C284 13.1934 283.455 12.7944 283.029 12.4818C282.977 12.4438 282.927 12.4071 282.877 12.3709C282.427 12.0428 282.017 11.7566 280.671 10.923C280.548 10.8469 280.313 10.7759 279.991 10.7451C279.676 10.7151 279.303 10.7261 278.922 10.7931C278.152 10.9284 277.401 11.2816 277.002 11.9226L276.999 11.9281C275.681 13.9317 275.631 14.022 274.523 16.0325C274.322 16.3985 274.085 16.828 273.8 17.3442C273.628 17.6547 273.231 17.7577 272.93 17.5703C272.634 17.3856 272.548 16.9915 272.743 16.7005C273.615 15.3987 274.195 14.6086 274.641 14.0003C274.743 13.8615 274.838 13.7321 274.928 13.6084C275.407 12.9477 275.745 12.4428 276.243 11.4747L276.248 11.4655ZM281.79 11.323C281.528 11.1552 281.209 10.9544 280.806 10.7051C280.119 10.2798 277.691 10.3313 276.785 11.7871C275.461 13.7991 275.408 13.8953 274.298 15.9102C274.097 16.276 273.861 16.705 273.576 17.2201C273.475 17.4021 273.242 17.4626 273.066 17.3527C272.892 17.2443 272.842 17.0134 272.956 16.8432C273.825 15.5463 274.401 14.7606 274.847 14.1525C275.498 13.266 275.871 12.7569 276.471 11.5921C277.202 10.4182 276.713 8.20019 275.199 7.27951C273.773 6.41231 273.319 6.16495 272.674 5.81325C272.156 5.53092 271.514 5.18134 270.148 4.3899C269.953 4.27728 269.89 4.02523 270.008 3.83445C270.129 3.6406 270.389 3.58865 270.576 3.72016C271.612 4.44981 272.16 4.86554 272.565 5.17269C273.295 5.72707 273.56 5.92774 275.384 6.98226C276.418 7.62598 278.791 7.53642 279.619 6.32606C280.862 4.5067 281.034 4.19333 281.553 3.24727C281.82 2.75919 282.18 2.10271 282.827 0.98416C282.93 0.806922 283.159 0.749819 283.333 0.858021C283.509 0.967965 283.557 1.20386 283.438 1.37401C282.698 2.42587 282.243 3.03138 281.899 3.48981C281.249 4.35589 280.993 4.69701 279.948 6.53126C279.476 7.36006 279.627 9.53737 280.962 10.4544C281.346 10.7183 281.657 10.9285 281.919 11.1008C282.064 11.1966 282.194 11.2806 282.312 11.3556C282.888 11.7205 283.193 11.8701 283.688 12.113C284.141 12.3353 284.753 12.6356 285.877 13.2501C286.099 13.3717 286.138 13.6774 285.951 13.8485C285.826 13.9636 285.636 13.9769 285.494 13.8823C284.146 12.9831 283.605 12.5863 283.18 12.2747C282.867 12.0459 282.618 11.863 282.158 11.5609C282.048 11.4891 281.927 11.4105 281.79 11.323Z" fill="#353535"/>
</svg>
